<?xml version="1.0" encoding="UTF-8" standalone="no"?>
<!-- Created with Inkscape (http://www.inkscape.org/) -->

<svg
   xmlns:dc="http://purl.org/dc/elements/1.1/"
   xmlns:cc="http://creativecommons.org/ns#"
   xmlns:rdf="http://www.w3.org/1999/02/22-rdf-syntax-ns#"
   xmlns:svg="http://www.w3.org/2000/svg"
   xmlns="http://www.w3.org/2000/svg"
   xmlns:sodipodi="http://sodipodi.sourceforge.net/DTD/sodipodi-0.dtd"
   xmlns:inkscape="http://www.inkscape.org/namespaces/inkscape"
   width="744.09448"
   height="744.09448"
   id="svg2"
   version="1.1"
   inkscape:version="0.48.2 r9819"
   sodipodi:docname="logo.svg"
   inkscape:export-filename="/Users/ian/data/git/github/idmillington/dendry/design/logo_64.png"
   inkscape:export-xdpi="7.7399998"
   inkscape:export-ydpi="7.7399998">
  <defs
     id="defs4" />
  <sodipodi:namedview
     id="base"
     pagecolor="#ffffff"
     bordercolor="#666666"
     borderopacity="1.0"
     inkscape:pageopacity="0.0"
     inkscape:pageshadow="2"
     inkscape:zoom="0.49497475"
     inkscape:cx="391.79123"
     inkscape:cy="438.80758"
     inkscape:document-units="px"
     inkscape:current-layer="layer2"
     showgrid="false"
     inkscape:snap-global="false"
     inkscape:window-width="1105"
     inkscape:window-height="1026"
     inkscape:window-x="812"
     inkscape:window-y="0"
     inkscape:window-maximized="0"
     units="mm"
     fit-margin-top="5"
     fit-margin-left="5"
     fit-margin-right="5"
     fit-margin-bottom="5" />
  <metadata
     id="metadata7">
    <rdf:RDF>
      <cc:Work
         rdf:about="">
        <dc:format>image/svg+xml</dc:format>
        <dc:type
           rdf:resource="http://purl.org/dc/dcmitype/StillImage" />
        <dc:title></dc:title>
      </cc:Work>
    </rdf:RDF>
  </metadata>
  <g
     inkscape:groupmode="layer"
     id="layer2"
     inkscape:label="Layer"
     style="display:inline"
     transform="translate(6.2765944,-101.68659)">
    <path
       style="color:#000000;fill:#333333;fill-opacity:1;fill-rule:nonzero;stroke:none;stroke-width:0.50000000000000000;marker:none;visibility:visible;display:inline;overflow:visible;enable-background:accumulate"
       d="m 365.75486,119.4033 c -1.70688,0 -3.40407,0.007 -5.10523,0.0311 l -0.0311,0 c -4.72113,0.0675 -9.42689,0.2476 -14.10163,0.49807 -0.20804,0.0111 -0.41464,0.0196 -0.62259,0.0311 -0.46772,0.0198 -0.93675,0.0348 -1.40082,0.0623 -1.33038,0.0788 -2.65817,0.18667 -3.98457,0.28016 -1.26774,0.0893 -2.53376,0.17751 -3.79779,0.28017 -5.28239,0.429 -10.53714,0.96054 -15.75149,1.61873 -0.10315,0.013 -0.20817,0.018 -0.31129,0.0311 -2.79995,0.35592 -5.59466,0.76203 -8.37382,1.18291 -0.95642,0.14485 -1.91001,0.31447 -2.86391,0.46695 -0.4859,0.0786 -0.97794,0.13749 -1.46308,0.2179 -0.17652,0.029 -0.35276,0.0641 -0.5292,0.0934 -1.259,0.21047 -2.51353,0.43217 -3.76666,0.65372 -18.72738,3.3124 -36.95053,8.09558 -54.53876,14.22615 l -0.0311,-0.0311 c -1.72069,0.5999 -3.42599,1.24128 -5.13635,1.86776 -0.7549,0.27651 -1.52079,0.52829 -2.27245,0.80937 l 0.0311,0.0311 c -1.00668,0.37642 -2.01724,0.73536 -3.01955,1.12066 -0.72091,0.27707 -1.42879,0.5901 -2.14794,0.87162 -1.67136,0.65509 -3.35295,1.28151 -5.01183,1.96115 -0.073,0.0298 -0.1449,0.0635 -0.21791,0.0934 -1.15564,0.47437 -2.30589,0.97689 -3.45537,1.46309 -1.27775,0.53945 -2.56029,1.06445 -3.82891,1.61873 -6.01508,2.62864 -11.93952,5.42635 -17.77491,8.37381 l -0.0311,0 c -0.58104,0.29351 -1.16379,0.60601 -1.74325,0.90275 -0.008,0.004 -0.0229,-0.004 -0.0311,0 -0.49165,0.25199 -0.97281,0.52395 -1.46309,0.77824 -0.77916,0.40372 -1.55894,0.80473 -2.3347,1.21405 -1.25619,0.66293 -2.51947,1.34589 -3.76667,2.02341 -0.76536,0.41652 -1.54163,0.82316 -2.30357,1.24518 -0.44826,0.24782 -0.893,0.49703 -1.33857,0.7471 -1.27893,0.71443 -2.55982,1.44931 -3.82892,2.17906 -0.17777,0.10237 -0.35163,0.20864 -0.5292,0.3113 -1.54427,0.89155 -3.0777,1.79419 -4.60715,2.70826 -0.24749,0.14752 -0.5004,0.28755 -0.74711,0.43581 -0.10355,0.0622 -0.20782,0.12442 -0.31129,0.18678 -0.42816,0.2579 -0.84934,0.51857 -1.27631,0.77823 -1.17789,0.71622 -2.34873,1.44959 -3.51763,2.17906 -0.007,0.005 -0.0236,-0.005 -0.0311,0 -0.58119,0.36266 -1.16443,0.72375 -1.74324,1.08953 -0.61608,0.38958 -1.22311,0.78979 -1.83664,1.18292 -0.007,0.005 -0.0238,-0.005 -0.0311,0 -1.12362,0.71983 -2.24723,1.44712 -3.36198,2.17906 -1.25605,0.82541 -2.49073,1.68051 -3.73553,2.52148 -0.007,0.005 -0.024,-0.005 -0.0311,0 -0.45914,0.30996 -0.91204,0.62179 -1.36969,0.93389 -0.58392,0.39821 -1.15971,0.81217 -1.74325,1.21405 -0.24629,0.17027 -0.50127,0.32719 -0.74711,0.49807 -0.86468,0.59853 -1.72756,1.19945 -2.58374,1.8055 -0.0118,0.008 -0.0194,0.0232 -0.0311,0.0311 -0.16909,0.11981 -0.32919,0.25346 -0.49807,0.37356 -0.5283,0.37548 -1.06166,0.7428 -1.5876,1.12065 -1.03535,0.7448 -2.08599,1.48568 -3.11294,2.24132 -0.17885,0.13155 -0.35058,0.27273 -0.5292,0.40469 -0.0416,0.0307 -0.0829,0.0626 -0.12452,0.0934 -10.77171,7.9645 -21.06088,16.54308 -30.84926,25.65065 l -0.0311,-0.0311 c -0.84387,0.78518 -1.65936,1.59929 -2.49036,2.39697 -0.21316,0.20224 -0.44105,0.3887 -0.65372,0.59146 -0.12661,0.12225 -0.24713,0.25111 -0.37355,0.37355 -0.89682,0.85758 -1.78934,1.71687 -2.67713,2.58374 -0.27231,0.26733 -0.53713,0.54184 -0.80936,0.80937 -3.86441,3.79766 -7.64336,7.6721 -11.33112,11.6424 -0.85371,0.91929 -1.7097,1.84019 -2.55261,2.77052 -0.0394,0.0434 -0.0851,0.0811 -0.12452,0.12452 -0.0838,0.0925 -0.16519,0.18768 -0.24903,0.28017 -5.870803,6.47616 -11.48743,13.1797 -16.872152,20.07848 -0.631861,0.80952 -1.273937,1.61296 -1.898895,2.42809 -0.768295,1.00226 -1.546231,2.0092 -2.303578,3.01956 -0.0449,0.0599 -0.0797,0.12689 -0.124518,0.18677 -0.899488,1.20104 -1.792602,2.39824 -2.67713,3.61102 -0.416139,0.57094 -0.832396,1.13862 -1.245178,1.71212 -0.420011,0.58309 -0.828631,1.18863 -1.245177,1.77437 -0.820998,1.15099 -1.65387,2.29362 -2.459224,3.45537 -0.0048,0.007 0.0048,0.0242 0,0.0311 -0.07958,0.11627 -0.168967,0.22654 -0.249036,0.34242 -0.723029,1.04582 -1.435908,2.09014 -2.14793,3.14407 -0.0048,0.007 0.0048,0.024 0,0.0311 -0.561876,0.83222 -1.125478,1.65277 -1.680989,2.49036 -4.490226,6.76921 -8.7364,13.70965 -12.763066,20.79446 -0.594149,1.04539 -1.19059,2.09208 -1.774377,3.14407 -0.04105,0.0728 -0.08351,0.14511 -0.124518,0.2179 -0.472561,0.853 -0.935114,1.69533 -1.400824,2.55262 -0.149787,0.27373 -0.318814,0.53499 -0.466941,0.80936 l 0.03113,0.0311 c -4.223454,7.82428 -8.159983,15.83666 -11.798053,24.00079 l -0.03113,-0.0311 c -0.307751,0.69059 -0.601916,1.38985 -0.902754,2.08567 -0.05044,0.11517 -0.105328,0.22719 -0.155647,0.34243 -0.103293,0.23895 -0.207804,0.47754 -0.311294,0.71597 -5.91314,13.62375 -10.972943,27.70092 -15.160031,42.14925 l -0.03113,0.0311 -0.03113,0.0311 c -0.165828,0.57278 -0.335063,1.13815 -0.498071,1.71212 -0.38206,1.34574 -0.754488,2.69445 -1.12066,4.04682 -0.01644,0.0606 -0.01477,0.12612 -0.03113,0.18678 -0.762243,2.81669 -1.485004,5.65428 -2.17906,8.49833 -0.239333,0.98399 -0.484942,1.97008 -0.715977,2.9573 -0.02186,0.0931 -0.04044,0.18708 -0.06226,0.28016 -0.182049,0.77793 -0.352286,1.55482 -0.5292,2.33471 -0.228145,0.99582 -0.467081,1.98815 -0.684847,2.98842 -0.02026,0.0934 -0.04208,0.18673 -0.06226,0.28017 -0.291123,1.34245 -0.564643,2.69875 -0.840495,4.04682 -0.126838,0.62241 -0.249961,1.24419 -0.373553,1.86777 -0.131477,0.66336 -0.245798,1.32791 -0.373553,1.99228 -0.08405,0.43546 -0.166583,0.87142 -0.249035,1.30744 -0.115267,0.61175 -0.230297,1.22394 -0.342424,1.83664 -0.159904,0.87079 -0.313417,1.74186 -0.466941,2.61487 -0.06909,0.394 -0.150105,0.78847 -0.217906,1.18292 -0.129048,0.74881 -0.249214,1.4909 -0.373554,2.24131 -0.161246,0.97511 -0.313501,1.94816 -0.466941,2.92617 -0.07677,0.48865 -0.174269,0.97378 -0.249035,1.46308 -0.120214,0.78737 -0.227237,1.57642 -0.342424,2.36584 -2.458258,16.84689 -3.735531,34.08384 -3.735531,51.61259 0,6.64289 0.199482,13.24563 0.560329,19.79832 l -0.03113,-0.0311 c 0.04726,0.85876 0.0984,1.72285 0.155647,2.58374 0.0084,0.13512 0.02257,0.26961 0.03113,0.40468 0.0096,0.14502 0.02179,0.29122 0.03113,0.43581 0.662689,10.25657 1.751481,20.38201 3.26859,30.38233 0.01899,0.12515 0.04314,0.24844 0.06226,0.37355 0.02161,0.12447 0.04309,0.24897 0.06226,0.37355 0.206368,1.34091 0.43236,2.67979 0.653718,4.0157 0.0563,0.34144 0.09815,0.68621 0.155648,1.02727 0.163408,0.96923 0.327837,1.92875 0.49807,2.89504 0.04781,0.26975 0.107223,0.53982 0.155648,0.80936 0.08345,0.46763 0.1638,0.93384 0.249035,1.40083 0.160242,0.87176 0.331459,1.74536 0.498071,2.61487 0.157812,0.82773 0.302578,1.6645 0.466941,2.49035 0.0846,0.4251 0.162899,0.85175 0.249036,1.27631 0.03811,0.18777 0.08611,0.37266 0.124517,0.56033 0.295009,1.43635 0.590746,2.8627 0.902754,4.29586 0.06096,0.28003 0.125145,0.56069 0.186776,0.84049 l 0.03113,0 c 2.870718,13.03704 6.445372,25.80341 10.708523,38.25807 0.423706,1.23785 0.870448,2.47278 1.307436,3.7044 0.257175,0.72698 0.51642,1.45433 0.778235,2.17906 0.365708,1.00957 0.714931,2.01429 1.08953,3.01956 0.237197,0.63653 0.475232,1.26409 0.715977,1.89889 0.03502,0.0923 0.0583,0.18787 0.09339,0.28017 0.479472,1.26136 0.970242,2.51145 1.463083,3.76666 0.03259,0.0828 0.06073,0.16625 0.09339,0.24903 0.0049,0.0124 0.02622,0.0187 0.03113,0.0311 0.492904,1.25198 0.987952,2.52174 1.494213,3.76666 0.02976,0.073 0.06357,0.14489 0.09339,0.21791 0.207468,0.50785 0.412835,1.01867 0.622589,1.52534 0.307275,0.74695 0.61826,1.49221 0.933883,2.24132 0.03075,0.0729 0.06259,0.14509 0.09339,0.2179 0.0053,0.0125 0.02584,0.0186 0.03113,0.0311 0.525721,1.24485 1.047614,2.49897 1.587601,3.73554 3.260036,7.46502 6.772709,14.79107 10.521747,21.97737 0.255549,0.48984 0.520466,0.97459 0.778235,1.46308 0.6603,1.25888 1.316248,2.52213 1.992284,3.76667 0.0067,0.0123 0.02446,0.0188 0.03113,0.0311 0.124907,0.22737 0.249326,0.45742 0.373553,0.68485 0.559308,1.02408 1.111896,2.03278 1.680989,3.05069 0.331725,0.59332 0.66102,1.18298 0.996142,1.77437 0.194206,0.34274 0.396145,0.68525 0.591459,1.02727 4.634093,8.115 9.576628,16.02374 14.817608,23.72063 0.07142,0.10489 0.146373,0.20648 0.217906,0.31129 1.290618,1.89104 2.596254,3.76992 3.922307,5.63443 0.10328,0.1455 0.207805,0.29048 0.311295,0.43581 0.721317,1.01099 1.447421,2.01651 2.17906,3.01956 0.515523,0.7078 1.035339,1.41285 1.556471,2.1168 0.283379,0.38251 0.555613,0.77045 0.840494,1.15179 8.434333,11.29001 17.545901,22.05624 27.238249,32.25008 l 0,0.0311 c 0.11178,0.11755 0.23049,0.22504 0.34243,0.34243 0.59929,0.62529 1.19909,1.24985 1.8055,1.86776 0.38286,0.3957 0.76711,0.789 1.15179,1.18292 0.0719,0.0734 0.14606,0.14444 0.21791,0.21791 0.37989,0.38833 0.77013,0.76519 1.15179,1.15178 0.54156,0.54858 1.07362,1.10481 1.61873,1.64986 0.79218,0.79279 1.59763,1.58018 2.39696,2.36584 0.20961,0.20565 0.41247,0.41745 0.62259,0.62259 0.14662,0.14343 0.28895,0.29263 0.43581,0.43581 0.25785,0.2509 0.51963,0.49699 0.77824,0.74711 0.10546,0.10222 0.20571,0.2093 0.31129,0.31129 0.50728,0.48937 1.01516,0.97673 1.52534,1.46308 0.8554,0.81458 1.72023,1.61899 2.58375,2.4281 1.21137,1.13213 2.41494,2.24674 3.64214,3.36198 0.54889,0.5 1.09775,0.99771 1.64986,1.49421 0.13645,0.12271 0.26818,0.25089 0.40468,0.37355 0.759,0.6791 1.53871,1.35078 2.30358,2.02342 0.66531,0.5902 1.32024,1.19204 1.99228,1.77437 0.006,0.005 0.0252,-0.005 0.0311,0 0.22203,0.19235 0.4312,0.3997 0.65372,0.59146 l 0.0623,0 c 1.78966,1.5419 3.56483,3.06956 5.38539,4.57603 0.051,0.0422 0.10453,0.0823 0.15565,0.12452 0.96191,0.79505 1.92461,1.58078 2.89503,2.36583 13.39231,10.83413 27.59214,20.72401 42.49167,29.54183 0.0122,0.007 0.0189,0.0239 0.0311,0.0311 0.35969,0.2128 0.72904,0.41102 1.08953,0.62259 0.81916,0.48055 1.6364,0.95837 2.45923,1.43195 1.19616,0.68916 2.40609,1.37901 3.61101,2.05454 6.78538,3.80421 13.7114,7.37844 20.76333,10.73966 l 0,0.0311 c 0.83756,0.39915 1.6803,0.79015 2.52148,1.18291 0.008,0.004 0.0226,-0.004 0.0311,0 1.29124,0.60282 2.59167,1.21798 3.89118,1.80551 0.009,0.004 0.0226,-0.004 0.0311,0 1.29927,0.58729 2.58342,1.17113 3.89118,1.74325 0.009,0.004 0.0224,-0.004 0.0311,0 0.54023,0.23633 1.07713,0.48225 1.61873,0.71598 2.09757,0.90496 4.20096,1.78062 6.31927,2.646 0.95922,0.39192 1.93164,0.76805 2.89504,1.15179 0.14657,0.0584 0.28914,0.12859 0.43581,0.18677 0.22894,0.0908 0.45568,0.18981 0.68485,0.28017 1.26773,0.50088 2.55456,0.97413 3.82892,1.46308 0.42788,0.16298 0.84763,0.33671 1.2763,0.49807 1.07948,0.40912 2.15248,0.81771 3.23746,1.21405 l 0,-0.0311 c 5.40702,1.97483 10.87867,3.82576 16.40521,5.54104 l -0.0311,0.0311 c 1.33402,0.41422 2.67498,0.78408 4.0157,1.18291 1.07258,0.31611 2.12946,0.65953 3.20633,0.96502 1.72276,0.49462 3.46521,0.96287 5.19861,1.43195 0.70418,0.19053 1.4109,0.37404 2.11681,0.56033 20.98748,5.5386 42.73871,9.2075 65.0605,10.80191 0.33353,0.0238 0.66236,0.0394 0.99614,0.0623 0.145,0.01 0.29077,0.0213 0.43581,0.0311 1.97995,0.13344 3.95699,0.24163 5.94572,0.34242 0.55979,0.0288 1.12052,0.0672 1.68099,0.0934 1.46999,0.0676 2.94578,0.10601 4.42038,0.15565 0.416,0.0141 0.82878,0.0497 1.24518,0.0623 l 0,-0.0311 c 3.61785,0.10923 7.25096,0.18677 10.8953,0.18677 6.4636,0 12.89079,-0.18751 19.26911,-0.5292 l 0,0.0311 c 0.89514,-0.048 1.78255,-0.12994 2.67713,-0.18677 0.26992,-0.0172 0.53955,-0.0133 0.80937,-0.0311 0.60192,-0.0381 1.2044,-0.0834 1.80551,-0.12452 1.76789,-0.12102 3.53133,-0.25783 5.292,-0.40468 15.86174,-1.323 31.43319,-3.69195 46.63188,-7.03525 0.44539,-0.098 0.89257,-0.18628 1.33857,-0.28017 0.14496,-0.0325 0.29092,-0.0607 0.43581,-0.0934 13.57142,-3.0587 26.85155,-6.92004 39.78341,-11.48675 1.56357,-0.55216 3.116,-1.1076 4.66941,-1.68099 1.06157,-0.38985 2.11947,-0.78266 3.1752,-1.18292 0.4874,-0.18528 0.97671,-0.37296 1.46309,-0.56033 13.7666,-5.3035 27.12616,-11.45546 40.00131,-18.36636 l 0.0311,0 c 0.51079,-0.2743 1.01456,-0.56367 1.52534,-0.8405 0.58003,-0.31435 1.16688,-0.61652 1.74325,-0.93388 0.66848,-0.36859 1.32647,-0.74769 1.99228,-1.12066 1.23803,-0.69205 2.47559,-1.41038 3.7044,-2.1168 0.7772,-0.4469 1.55832,-0.88908 2.33471,-1.33857 0.30264,-0.17707 0.60069,-0.35126 0.90276,-0.5292 0.15655,-0.0922 0.31072,-0.18759 0.46694,-0.28016 0.90313,-0.53391 1.8103,-1.07706 2.70826,-1.61873 0.32342,-0.19547 0.64253,-0.39532 0.96501,-0.59146 1.35312,-0.82214 2.70568,-1.65069 4.04682,-2.49036 6.58224,-4.12101 13.01765,-8.44885 19.30025,-12.98097 0.229,-0.16519 0.45626,-0.33234 0.68485,-0.49807 0.27049,-0.19651 0.53975,-0.39408 0.80936,-0.59146 1.422,-1.03709 2.82775,-2.08643 4.2336,-3.14407 14.14496,-10.64142 27.45863,-22.3287 39.84567,-34.92722 0.28777,-0.29267 0.58488,-0.57808 0.87163,-0.87162 0.86676,-0.88768 1.72626,-1.78041 2.58374,-2.67713 0.12205,-0.12745 0.25169,-0.24594 0.37355,-0.37355 1.01333,-1.06285 2.01938,-2.13098 3.01956,-3.20634 0.93269,-1.00101 1.84933,-2.00742 2.77051,-3.01955 0.18772,-0.20653 0.3731,-0.41561 0.56033,-0.62259 28.87291,-31.91792 52.01682,-69.117 67.7999,-109.98027 0.55191,-1.42893 1.08488,-2.85804 1.61873,-4.29586 1.59524,-4.29644 3.1134,-8.63881 4.54489,-13.0121 0.0656,-0.2002 0.14607,-0.39432 0.21791,-0.59146 0.0609,-0.18723 0.12616,-0.37295 0.18678,-0.56033 0.40902,-1.26441 0.78776,-2.5272 1.18292,-3.79779 0.14799,-0.47587 0.28976,-0.95522 0.43581,-1.43195 0.28124,-0.91281 0.56683,-1.82351 0.84049,-2.73939 0.003,-0.01 -0.003,-0.0216 0,-0.0311 0.14859,-0.49948 0.28952,-0.9975 0.43581,-1.49421 0.0911,-0.31131 0.18993,-0.62223 0.28017,-0.93388 0.003,-0.009 -0.003,-0.0212 0,-0.0311 3.50085,-12.09447 6.3825,-24.45418 8.59172,-37.04402 0.19349,-1.10249 0.37604,-2.22194 0.56033,-3.33085 0.19299,-1.16133 0.37865,-2.32156 0.56033,-3.4865 0.0472,-0.30254 0.10928,-0.60012 0.15565,-0.90275 0.108,-0.70692 0.20747,-1.40852 0.31129,-2.1168 0.86219,-5.88229 1.5785,-11.80236 2.14793,-17.77491 0.0188,-0.19695 0.0438,-0.3944 0.0623,-0.59145 0.11544,-1.23261 0.2085,-2.46816 0.31129,-3.70441 0.1198,-1.44076 0.23993,-2.88138 0.34243,-4.32699 0.0623,-0.89113 0.13089,-1.7842 0.18678,-2.67713 0.0283,-0.44604 0.0356,-0.89207 0.0622,-1.33856 0.0196,-0.33265 0.0435,-0.66324 0.0623,-0.99614 0.0412,-0.7249 0.0881,-1.45199 0.12452,-2.17906 0.0246,-0.48593 0.0396,-0.97665 0.0623,-1.46309 0.25907,-5.55937 0.40468,-11.15526 0.40468,-16.77876 0,-4.81701 -0.0898,-9.61149 -0.28016,-14.38179 -0.006,-0.14535 -0.0252,-0.29052 -0.0311,-0.43582 -0.0482,-1.14334 -0.0932,-2.28362 -0.15565,-3.42423 -0.0464,-0.91642 -0.10225,-1.82483 -0.15565,-2.73939 -0.12254,-2.09908 -0.24574,-4.19904 -0.40468,-6.28815 -0.007,-0.0939 -0.0239,-0.18624 -0.0311,-0.28016 -1.42309,-18.51227 -4.27743,-36.62097 -8.43607,-54.22747 -0.19913,-0.8429 -0.38692,-1.6806 -0.59146,-2.52148 -0.12162,-0.49844 -0.24983,-0.9966 -0.37356,-1.49421 -0.33332,-1.34066 -0.67872,-2.68112 -1.02727,-4.0157 -1.0726,-4.10693 -2.2094,-8.18643 -3.42423,-12.23386 -0.33454,-1.11434 -0.68427,-2.22105 -1.02727,-3.33085 -0.0475,-0.15378 -0.0765,-0.31327 -0.12452,-0.46694 l -0.0311,0 c -0.33795,-1.08136 -0.64813,-2.16058 -0.99614,-3.23746 -0.0476,-0.14726 -0.10779,-0.28884 -0.15565,-0.43581 -0.23859,-0.73496 -0.47273,-1.47735 -0.71598,-2.21019 -0.21598,-0.64317 -0.43466,-1.28735 -0.65372,-1.93003 -0.12288,-0.36318 -0.24952,-0.72688 -0.37355,-1.08953 -0.20942,-0.61156 -0.40989,-1.22667 -0.62259,-1.83663 -0.13836,-0.3968 -0.29586,-0.78645 -0.43581,-1.18292 -0.63518,-1.80362 -1.26661,-3.59528 -1.93002,-5.38539 -0.33942,-0.91418 -0.68267,-1.82645 -1.02728,-2.73939 -0.52921,-1.39221 -1.07254,-2.78761 -1.61873,-4.17135 -0.0119,-0.0302 -0.0235,-0.0615 -0.0311,-0.0934 -0.004,-0.009 0.004,-0.0222 0,-0.0311 -0.49943,-1.26227 -1.0089,-2.51551 -1.52535,-3.76667 -0.40878,-1.00064 -0.82753,-1.99238 -1.24517,-2.98842 -7.08923,-16.90711 -15.45016,-33.13806 -24.9658,-48.59304 -0.37909,-0.6157 -0.77147,-1.22221 -1.15179,-1.83663 -0.53952,-0.87162 -1.06847,-1.75006 -1.61873,-2.61488 l -0.0311,0 c -3.64146,-5.72235 -7.43887,-11.34803 -11.39337,-16.84102 -1.18758,-1.6496 -2.39594,-3.29026 -3.61102,-4.91844 -0.0671,-0.09 -0.11963,-0.19022 -0.18677,-0.28017 -0.94376,-1.26212 -1.9038,-2.51762 -2.86391,-3.76666 -0.13918,-0.18131 -0.29584,-0.34863 -0.43581,-0.5292 -1.08024,-1.3997 -2.168,-2.78837 -3.26859,-4.17134 -0.23414,-0.29421 -0.4498,-0.60931 -0.68485,-0.90276 -0.19307,-0.24126 -0.39775,-0.47523 -0.59146,-0.71597 -0.98242,-1.21999 -1.95911,-2.43554 -2.9573,-3.64215 -0.10312,-0.12464 -0.20799,-0.24904 -0.31129,-0.37355 l -0.0311,0 c -6.65624,-8.02277 -13.65379,-15.75735 -20.98123,-23.16029 -0.23733,-0.23975 -0.47798,-0.47693 -0.71598,-0.71598 -0.18647,-0.1873 -0.37328,-0.37381 -0.56033,-0.56033 -0.80457,-0.80467 -1.61584,-1.60002 -2.42809,-2.39697 -0.19887,-0.19506 -0.39214,-0.39686 -0.59146,-0.59146 -0.87719,-0.85661 -1.76001,-1.70506 -2.64601,-2.55261 -0.13774,-0.13172 -0.26672,-0.27318 -0.40468,-0.40468 -0.032,-0.0305 -0.0614,-0.0629 -0.0934,-0.0934 -0.10135,-0.0966 -0.20981,-0.18374 -0.31129,-0.28016 -0.89123,-0.84689 -1.7799,-1.68643 -2.67713,-2.52149 -0.26729,-0.24884 -0.5413,-0.49908 -0.80937,-0.7471 -0.77498,-0.7169 -1.55326,-1.43777 -2.3347,-2.14794 -0.34975,-0.31791 -0.70738,-0.61734 -1.0584,-0.93388 -0.1579,-0.14237 -0.30879,-0.29371 -0.46695,-0.43581 -7.3521,-6.60584 -14.99203,-12.91561 -22.88012,-18.89556 -1.74368,-1.32188 -3.49218,-2.63219 -5.26088,-3.92231 -0.17447,-0.12727 -0.35448,-0.2466 -0.5292,-0.37355 -1.95548,-1.42092 -3.9292,-2.82087 -5.91459,-4.20248 -8.15537,-5.67523 -16.54843,-11.01318 -25.18371,-16.00052 -0.02,-0.0116 -0.0422,-0.0196 -0.0622,-0.0311 -1.40569,-0.81149 -2.81583,-1.63544 -4.23361,-2.4281 -0.15464,-0.0864 -0.31216,-0.1628 -0.46694,-0.24903 -1.08297,-0.60449 -2.17852,-1.21188 -3.26859,-1.80551 -0.008,-0.004 -0.0231,0.004 -0.0311,0 -0.30266,-0.16441 -0.6026,-0.33137 -0.90275,-0.49807 -0.2076,-0.11198 -0.41474,-0.23084 -0.62259,-0.34242 -0.60919,-0.32796 -1.2253,-0.64055 -1.83664,-0.96502 -0.13491,-0.0714 -0.26885,-0.14673 -0.40468,-0.2179 -0.2996,-0.15809 -0.60264,-0.30969 -0.90275,-0.46694 -0.85145,-0.44728 -1.69702,-0.89827 -2.55261,-1.33857 -0.11545,-0.0593 -0.22688,-0.12716 -0.34243,-0.18678 -0.24802,-0.12704 -0.49875,-0.24707 -0.7471,-0.37355 -8.42558,-4.29081 -17.03953,-8.24056 -25.83743,-11.86031 -0.93356,-0.3841 -1.8641,-0.77545 -2.80165,-1.15179 -0.41522,-0.16667 -0.82918,-0.33293 -1.24518,-0.49807 -1.0739,-0.42632 -2.15843,-0.86022 -3.23746,-1.27631 -0.51673,-0.19927 -1.03652,-0.39666 -1.55647,-0.59146 -0.92393,-0.35128 -1.8429,-0.6835 -2.77052,-1.02727 -7.52755,-2.7896 -15.18354,-5.31282 -22.94238,-7.59558 -0.10334,-0.0304 -0.17977,-0.0627 -0.28017,-0.0934 -1.97437,-0.57908 -3.9572,-1.13552 -5.94572,-1.68098 -1.79339,-0.49195 -3.58075,-0.99874 -5.38539,-1.46309 -0.19696,-0.0507 -0.39437,-0.1053 -0.59146,-0.15564 -1.2177,-0.31306 -2.45054,-0.60253 -3.67327,-0.90276 -1.26186,-0.30983 -2.53061,-0.60704 -3.79779,-0.90275 -0.15672,-0.0366 -0.31015,-0.0882 -0.46694,-0.12452 -0.29957,-0.0692 -0.6029,-0.11838 -0.90276,-0.18678 -1.08975,-0.24946 -2.17495,-0.50849 -3.26859,-0.7471 l -0.0311,0.0311 c -14.43189,-3.14633 -29.20463,-5.42676 -44.23491,-6.75509 -2.40129,-0.21222 -4.80721,-0.39626 -7.22203,-0.56033 -0.20775,-0.0141 -0.41474,-0.0485 -0.62259,-0.0623 -0.33164,-0.0221 -0.66422,-0.0411 -0.99614,-0.0623 -2.28831,-0.14504 -4.57969,-0.27215 -6.8796,-0.37355 -0.21729,-0.01 -0.43633,-0.0218 -0.65372,-0.0311 -2.02081,-0.0854 -4.04081,-0.13536 -6.07024,-0.18677 -0.4032,-0.0102 -0.81051,-0.0223 -1.21405,-0.0311 -0.23814,-0.005 -0.47774,0.005 -0.71597,0 -2.40149,-0.048 -4.80904,-0.0934 -7.22203,-0.0934 -0.0104,0 -0.0207,0 -0.0311,0 z m 12.04709,18.80217 7.06638,22.69335 -2.02342,1.18292 -7.25315,39.31647 -15.50246,-19.39363 -6.94186,-21.88399 24.65451,-21.91512 z m -44.54621,0.65372 -11.23773,8.00026 -0.28016,-6.75508 c 3.82214,-0.47955 7.65669,-0.89587 11.51789,-1.24518 z m 63.34838,0.24904 c 6.97873,0.68053 13.88599,1.60515 20.7322,2.70826 l -15.37794,9.02753 c -1.64435,-3.5862 -3.46686,-7.57039 -5.35426,-11.73579 z m -92.51666,3.67327 0.40469,16.56085 -13.23001,15.4402 -16.56086,-21.23027 -4.7628,-2.70826 c 11.14894,-3.25462 22.55085,-5.97178 34.14898,-8.06252 z m 144.00473,5.47878 c 2.02046,0.52527 4.03372,1.05678 6.03911,1.61873 l 2.24132,11.23772 -29.41731,16.62311 c 0,0 -10.85331,9.05702 -19.61154,17.3391 l 2.55262,-15.90714 38.1958,-30.91152 z m -187.95948,5.60329 10.30384,6.78622 14.31954,21.72834 -14.35067,16.7165 -25.05919,-19.1446 -3.51762,-19.51815 c 6.01776,-2.35935 12.12206,-4.55382 18.3041,-6.56831 z m 216.56743,3.20633 c 2.14267,0.76917 4.25938,1.58554 6.38153,2.39697 l -5.35426,20.48316 -6.03911,-18.80217 0.80937,-0.49807 4.20247,-3.57989 z m 12.35838,4.73168 c 11.5903,4.69024 22.87389,10.02811 33.77543,15.93826 l -0.40468,15.90714 -5.82121,-3.11294 -12.79419,4.29586 -20.60768,20.57655 0.68485,-16.31182 -1.49422,-4.70054 6.6617,-32.59251 z m -140.58049,2.49035 2.8639,10.64627 -11.79805,-2.70826 8.93415,-7.93801 z m 109.57558,5.26088 5.91459,29.54182 -10.61513,52.95116 -15.06665,7.53332 8.59173,-33.46413 -9.96142,-29.88426 -7.7201,-6.00797 6.28815,-6.78622 22.56883,-13.88372 z m -121.24912,5.13635 16.31182,6.78622 1.27631,4.79393 19.23798,25.83742 -0.7471,4.04683 -8.52947,55.50377 -16.87215,25.68178 -16.4052,-51.48808 4.66941,-70.22799 1.0584,-0.93388 z m -6.75508,6.10137 -4.14022,39.62776 -1.43195,4.7628 -4.2336,-13.29226 -4.91845,-6.31928 14.72422,-24.77902 z m -131.77087,0.49807 23.75175,17.80603 19.92284,38.41372 -12.01596,33.86881 -23.56498,-48.09496 -28.20326,-29.54183 c 6.54573,-4.37967 13.24825,-8.53337 20.10961,-12.45177 z m 346.75069,9.61899 c 0.61187,0.39576 1.22753,0.78328 1.83664,1.18292 l -1.64986,0.74711 -0.18678,-1.93003 z m -29.85312,5.32313 6.94186,3.36198 -15.47132,42.18038 -24.68564,4.2336 0.71598,-17.52587 11.17546,-15.16003 21.32366,-17.09006 z m -93.57506,2.11681 9.61899,6.44379 8.5606,22.75561 -3.92231,33.24623 -12.51403,6.25701 -12.04709,-28.10987 -6.69283,-6.69283 -0.34242,-15.25342 17.33909,-18.64652 z m 137.90337,2.49035 c 14.74983,10.67597 28.60228,22.50535 41.40213,35.39416 l -0.34242,5.54104 -31.28507,-2.83278 -27.05148,0 -7.12864,-2.86391 9.74352,-25.55726 8.77849,4.2336 14.22615,18.49088 -8.52946,-19.92283 -12.20274,-6.50605 12.38952,-5.97685 z m -383.01648,5.66556 22.78674,26.74017 8.49833,21.2614 -22.72448,-1.33856 -9.21431,6.13249 0.65372,-30.32006 0,-22.47544 z m -29.91538,11.20659 -5.04297,10.08593 -3.36198,-2.646 c 2.75838,-2.52553 5.56274,-5.00695 8.40495,-7.43993 z m 161.49947,0.0934 3.61101,5.47878 15.6581,44.1104 6.56831,50.58532 -2.30357,3.48649 -10.08594,23.28481 -6.97299,-23.28481 -27.67406,-40.49938 0.62259,-5.04297 15.6581,-15.6581 -4.26473,-27.02035 9.18318,-15.44019 z m -179.8347,16.80989 13.94598,17.557 1.5876,29.44843 -27.23825,-24.62337 -2.92616,-6.87961 c 4.71338,-5.31726 9.59185,-10.49608 14.63083,-15.50245 z m 276.86512,19.73606 3.36198,4.51376 3.11295,14.0705 -5.97685,2.98843 -0.49808,-21.57269 z m -208.69168,7.34654 17.80604,8.90302 10.30384,25.77516 -6.75509,56.40653 -32.71703,-27.05148 -9.96141,-31.3162 0.5292,-24.15644 20.79445,-8.56059 z m 422.67537,0 5.26087,0.80937 c 6.37195,7.9262 12.41547,16.12754 18.05507,24.62337 l -9.96142,13.91486 -21.91511,-2.33471 8.56059,-24.18757 0,-12.82532 z m -88.25193,4.26473 64.03324,0 -5.66556,29.88425 -27.17599,23.1603 -2.70826,-1.80551 -8.09365,-2.52148 -1.86777,-14.56858 -29.32392,-21.94624 10.80191,-12.20274 z m -441.757703,15.31568 2.054542,0.34242 18.490881,18.49088 9.5256,15.09778 -2.58374,12.88758 -26.615659,2.39697 -21.012364,-16.31182 c 6.091647,-11.37752 12.81861,-22.36155 20.14074,-32.90381 z m 409.601003,3.54876 33.58866,19.58041 1.36969,5.44765 -35.51868,-2.61488 -31.28507,7.5022 5.16748,-21.85286 3.33085,-1.30744 23.34707,-6.75508 z m 148.26947,9.36995 c 2.40934,3.8352 4.7795,7.70449 7.03525,11.64241 l -3.61102,-2.86391 -7.4088,-0.80936 3.98457,-7.96914 z m -192.31761,5.50991 -10.584,31.72089 -8.12478,-24.37434 18.70878,-7.34655 z m -170.83829,6.56831 3.7044,6.6617 18.49088,29.88425 3.26859,30.2578 -14.63083,33.77543 -9.68126,-10.14819 -4.57602,-62.44563 3.42424,-27.98536 z m 141.45211,4.94958 4.57603,40.12583 -24.18756,20.01622 -24.2187,2.77052 21.35479,-54.10294 22.47544,-8.80963 z m 84.26736,7.4088 27.14487,3.29972 3.82892,15.34681 -56.5933,28.29665 -32.37461,1.77438 c 5.47941,-6.80083 13.8526,-14.56857 13.8526,-14.56857 l -2.83278,-19.92284 0.84049,-3.57988 46.13381,-10.64627 z m -444.964032,4.10909 9.152052,11.45563 -15.78262,7.22202 -1.525342,-1.12065 c 2.546326,-5.94843 5.280334,-11.79215 8.15591,-17.557 z m 487.829262,1.08953 3.48649,0.43581 -3.08181,2.61487 -0.40468,-3.05068 z m -427.74947,0.0623 2.05455,3.26859 -2.64601,0.24903 0.59146,-3.51762 z m 497.29261,1.83663 28.45229,5.69669 23.1603,14.63083 c 2.70802,6.66841 5.18931,13.45279 7.47106,20.32752 l -12.10935,-0.80937 -40.81068,-13.60356 -0.46694,-0.62259 -37.35531,-15.6581 8.90302,-8.52946 22.75561,-1.43196 z m -44.54621,22.28867 10.33497,3.54876 12.85645,11.17546 -2.83278,24.18757 9.96142,14.22615 -4.26473,-14.22615 5.69668,-25.61952 -3.14407,-3.51763 10.24158,3.51763 25.61952,27.05147 8.93415,30.19555 -62.47676,0.99614 -4.79394,-32.62364 -21.82172,-22.88013 4.73167,-5.57217 10.95756,-10.45949 z m -473.44747,10.45949 -4.264728,11.36224 14.226148,8.56059 3.98457,-1.12065 4.54489,18.17958 1.3697,-19.82944 15.72036,-4.35812 24.18756,19.92283 31.31621,34.18011 4.2336,51.20791 -12.79419,17.09005 -11.36224,31.28508 -21.35479,22.75561 -21.32366,-4.2336 -27.05147,-4.29586 -32.436866,0.87162 -14.537443,-19.3625 -26.802437,-12.04709 c -1.331825,-12.12182 -2.023413,-24.44281 -2.023413,-36.9195 0,-30.73938 4.153322,-60.5092 11.922571,-88.78113 l 1.245177,-1.71212 22.786741,-18.49088 38.41371,-4.26473 z m 535.73745,9.58786 29.23053,6.07024 14.28841,-0.96501 c 2.29511,7.44831 4.35411,15.00177 6.1325,22.66222 l -19.02008,22.41319 -9.18318,0.15565 -7.87575,-31.47185 -13.57243,-18.86444 z m -81.777,3.20634 18.49088,18.49088 5.10522,29.54182 -23.5961,-13.63469 0,-34.39801 z m -8.99641,7.81348 2.55261,23.75176 -17.74377,-5.94573 15.19116,-17.80603 z m 143.35101,30.75588 c 1.40835,7.52201 2.56006,15.12736 3.45537,22.81787 l -12.57629,-7.31542 9.12092,-15.50245 z m -231.13599,25.46387 37.01288,0 27.02035,7.12864 18.64652,18.64652 -2.98842,18.33524 4.73167,-16.59199 8.09365,8.06252 25.61952,0 16.31182,7.47107 7.87575,16.7165 17.05892,22.78674 11.39337,18.49088 19.92284,12.79419 16.52972,11.36225 -0.87162,19.95396 2.05454,-19.11347 13.57243,9.3077 c -15.17909,49.05958 -41.3555,93.26086 -75.64451,129.77858 l -5.44765,-0.43581 -32.71702,1.43195 -32.74816,9.96142 -19.92284,-5.69668 -55.50376,-22.75562 -38.41372,-18.52201 -24.18756,-11.36224 -19.92284,-19.92283 -24.18756,-34.18011 -7.12864,-28.4523 2.86391,-58.33655 15.62697,-48.37513 35.58093,-17.09005 54.88118,-10.45949 0.87163,28.6702 4.0157,-29.60408 z m 216.31839,2.86391 19.70492,9.83689 c 0.54921,7.83415 0.8405,15.74676 0.8405,23.72063 0,3.62601 -0.0722,7.23488 -0.18678,10.83304 l -4.70054,-1.71212 -21.88399,-4.73167 -2.30358,-26.58453 -2.49035,-9.99255 11.01982,-1.36969 z m -20.14074,2.52148 3.05068,10.27271 3.57989,23.56498 -3.57989,-0.77824 -42.67844,-22.78674 -11.39337,-5.69669 37.01288,-2.83277 14.00825,-1.74325 z m -45.1688,45.26219 35.42529,16.24956 21.94624,32.46799 -0.96501,21.63495 -29.5107,-22.78674 -18.52201,-27.05147 -8.37381,-20.51429 z m 65.30954,10.55287 19.45589,2.27245 c -0.68669,8.57229 -1.69819,17.05517 -3.01956,25.43274 l -2.17906,-0.12451 -14.25727,-27.58068 z m -644.752706,20.91898 12.918713,7.53332 10.366099,15.56471 -3.26859,0.0934 -17.245703,-6.16363 c -1.0682,-5.62483 -1.988041,-11.30691 -2.770519,-17.02779 z m 639.336186,20.98123 8.24929,12.17161 4.5449,14.31953 c -0.31224,1.07775 -0.61111,2.16424 -0.93388,3.23747 l -13.91486,-10.73966 2.05455,-18.98895 z m -631.678347,17.80603 5.260874,1.49422 32.717028,5.69668 19.891704,0.93389 -17.027797,10.42835 -21.354787,8.5606 -10.490617,1.86776 c -3.418469,-9.47125 -6.431414,-19.1347 -8.996405,-28.9815 z m 79.878107,14.81761 17.3391,8.99641 -12.265,23.22255 5.04297,17.61926 -36.359173,-3.39311 -17.090056,-11.39337 -20.607681,-3.26859 c -1.066206,-2.49801 -2.10627,-5.0045 -3.112943,-7.53332 l 18.055068,-1.99229 15.626973,-8.56059 28.483422,0 4.88732,-13.69695 z m 36.26579,19.86058 12.91871,8.06252 -1.43195,9.96142 -28.4523,12.82532 1.43195,-24.18757 7.09751,-4.26473 8.43608,-2.39696 z m -91.146966,31.40959 11.549017,5.13635 -6.039109,5.29201 c -1.89371,-3.43851 -3.735112,-6.91735 -5.509908,-10.42836 z m 165.266126,2.27245 7.09751,34.14898 -1.43195,14.25728 -31.28507,21.32365 -0.3113,2.77052 c -0.58685,-9.6047 -1.12066,-18.85628 -1.12066,-21.26139 0,-5.69225 5.69669,-18.49088 5.69669,-18.49088 l -3.05069,-18.30411 24.40547,-14.44405 z m 65.43406,4.26473 8.28043,5.16748 11.6424,30.41345 11.39337,19.92284 31.31621,25.61952 1.52534,12.32725 -1.52534,-0.93388 -30.5691,2.24132 -27.76745,-34.98948 -14.25728,-29.88425 9.96142,-29.88425 z m -209.189752,12.82532 11.393371,0 -8.529464,18.49088 -1.307436,0.99614 C 84.795229,655.93025 81.32721,650.6066 78.02556,645.17933 l 8.809628,-3.51763 z m 111.100922,1.68099 4.17135,12.54516 -5.69669,17.09006 6.69283,34.39801 -17.21457,10.33497 3.42423,-12.01595 0,-25.61952 -18.49088,-11.39337 3.61102,-16.31182 17.71264,-7.87575 5.79007,-1.15179 z m -76.92081,8.28043 10.70852,1.43195 9.21431,24.18757 -4.29586,28.4523 0.99614,12.10934 c -6.86347,-6.31014 -13.45168,-12.90872 -19.76718,-19.76718 l 3.14407,-9.43222 0,-12.79419 -6.41266,-14.87987 6.41266,-9.3077 z m 214.54401,1.46308 21.66609,15.59585 32.74815,15.6581 17.05893,38.44484 12.82532,24.18757 -8.68511,19.30024 -2.70826,-10.77078 -12.82532,-13.16775 -18.49088,-20.66994 -1.3697,-4.2336 -0.0623,-10.30384 -9.96142,-19.92283 -27.67406,-22.59997 -2.52149,-11.51789 z m -189.79612,3.51763 7.96914,4.98071 0.56033,-0.24904 2.27245,15.90714 18.52201,5.69668 2.83277,18.49088 -3.1752,21.10576 -16.74763,5.91459 -9.71238,-1.27631 c -1.91719,-1.6188 -3.81681,-3.25763 -5.69669,-4.91845 l -0.24903,-15.1289 8.56059,-37.01289 -5.13636,-13.51017 z m -36.42143,11.98483 7.37768,10.0548 -5.32313,12.17161 c -3.9291,-4.5221 -7.7394,-9.15328 -11.424504,-13.88373 l 5.385394,-2.55261 3.98456,-5.79007 z m 156.79893,37.10628 8.56059,18.49088 2.83278,2.02341 0,5.10522 -2.83278,17.05893 -18.52201,12.82532 -1.40082,14.22615 -9.96142,8.52947 -0.0934,0.15564 c -5.38056,-2.05168 -10.69517,-4.25073 -15.93826,-6.56831 l -2.49036,-10.64626 4.29586,-29.88425 11.36225,-19.92283 24.18756,-11.39337 z m 165.07935,7.12863 26.42889,6.973 c 5.76801,7.01563 11.97168,15.00264 13.41678,18.61539 0.78538,1.96346 1.36264,5.69903 1.77438,10.02368 l -31.65863,-11.4245 -9.96142,-24.18757 z m 152.37855,10.61514 c -5.82457,5.09103 -11.82224,9.97931 -17.99281,14.66196 l -8.12478,-7.03525 7.50219,-2.61487 18.6154,-5.01184 z m -105.1552,1.86776 1.18291,0.3113 25.58839,11.39337 22.78674,4.26473 15.90714,-5.50991 13.04323,8.68511 c -12.39504,8.79569 -25.40753,16.77676 -38.97404,23.84514 l -25.55726,-12.79419 -5.91459,-2.14793 c -0.24146,-6.25863 -1.21405,-12.07822 -1.21405,-12.07822 l -6.84847,-15.9694 z m -190.20081,8.5606 16.34295,11.67353 -2.8639,22.75561 -24.62338,26.27324 c -8.50611,-2.27783 -16.89731,-4.86446 -25.12145,-7.78236 l 11.33111,-7.09751 1.43196,-8.52946 19.92283,-18.49088 3.57988,-18.80217 z m -81.87039,0.28016 -2.67713,31.03604 c -6.76941,-3.69971 -13.38561,-7.62266 -19.86058,-11.76692 l -0.2179,-0.74711 0,-7.4088 9.96141,-3.98457 12.7942,-7.12864 z m 156.2386,3.73553 6.00798,27.58068 2.83277,28.45229 12.82533,8.5606 0.0934,2.83277 c -6.81321,0.41425 -13.69024,0.62259 -20.60768,0.62259 -2.11075,0 -4.21785,-0.0233 -6.31928,-0.0623 l 1.21405,-10.52174 2.83278,-17.09006 -9.96142,-14.22615 -9.96142,-9.96141 -2.39696,-14.44406 18.05507,-1.21405 5.38539,-0.5292 z m 14.5997,3.98457 21.29253,17.89942 7.09751,21.35479 0.40468,0.49807 -3.23746,19.42476 -1.40083,2.80165 c -1.90293,0.21303 -3.81536,0.41052 -5.72781,0.59146 l 0,-10.52175 -14.22615,-19.92283 -4.20247,-32.12557 z m 65.40293,17.89942 27.05147,9.96142 4.20247,0.24903 c 0.0533,3.24208 0.0623,5.44765 0.0623,5.44765 l 3.26859,10.77078 c -14.97773,5.40388 -30.43599,9.77452 -46.32059,13.01211 l -4.88732,-6.16363 8.09365,-16.1873 8.52947,-17.09006 z m -115.27228,9.96142 12.82533,25.61952 0,9.74351 c -13.80334,-0.96253 -27.36432,-2.7349 -40.65503,-5.32313 l 6.47492,-4.42038 14.25728,-24.18757 7.0975,-1.43195 z m 157.297,0.84049 10.61514,0.59146 8.80962,3.95344 c -5.943,2.7529 -11.96035,5.34346 -18.08619,7.75123 -0.74558,-4.34924 -1.33061,-8.7933 -1.33857,-12.29613 z"
       id="path2985"
       inkscape:connector-curvature="0" />
  </g>
</svg>
