<?xml version="1.0" encoding="UTF-8" standalone="no"?>
<!-- Created with Inkscape (http://www.inkscape.org/) -->

<svg
   xmlns:dc="http://purl.org/dc/elements/1.1/"
   xmlns:cc="http://creativecommons.org/ns#"
   xmlns:rdf="http://www.w3.org/1999/02/22-rdf-syntax-ns#"
   xmlns:svg="http://www.w3.org/2000/svg"
   xmlns="http://www.w3.org/2000/svg"
   xmlns:sodipodi="http://sodipodi.sourceforge.net/DTD/sodipodi-0.dtd"
   xmlns:inkscape="http://www.inkscape.org/namespaces/inkscape"
   width="1024"
   height="1024"
   id="svg2"
   version="1.1"
   inkscape:version="0.48.2 r9819"
   sodipodi:docname="logo.svg"
   inkscape:export-filename="/Users/ian/data/git/github/idmillington/dendry/design/logo_1024.png"
   inkscape:export-xdpi="123.86"
   inkscape:export-ydpi="123.86">
  <defs
     id="defs4" />
  <sodipodi:namedview
     id="base"
     pagecolor="#ffffff"
     bordercolor="#666666"
     borderopacity="1.0"
     inkscape:pageopacity="0.0"
     inkscape:pageshadow="2"
     inkscape:zoom="0.60351562"
     inkscape:cx="512"
     inkscape:cy="512"
     inkscape:document-units="px"
     inkscape:current-layer="layer2"
     showgrid="false"
     inkscape:snap-global="false"
     inkscape:window-width="1105"
     inkscape:window-height="1026"
     inkscape:window-x="812"
     inkscape:window-y="0"
     inkscape:window-maximized="0"
     units="px"
     fit-margin-top="5"
     fit-margin-left="5"
     fit-margin-right="5"
     fit-margin-bottom="5" />
  <metadata
     id="metadata7">
    <rdf:RDF>
      <cc:Work
         rdf:about="">
        <dc:format>image/svg+xml</dc:format>
        <dc:type
           rdf:resource="http://purl.org/dc/dcmitype/StillImage" />
        <dc:title></dc:title>
      </cc:Work>
    </rdf:RDF>
  </metadata>
  <g
     inkscape:groupmode="layer"
     id="layer2"
     inkscape:label="Layer"
     style="display:inline"
     transform="translate(6.2765944,178.21893)">
    <path
       style="color:#000000;fill:#333333;fill-opacity:1;fill-rule:nonzero;stroke:none;stroke-width:0.5;marker:none;visibility:visible;display:inline;overflow:visible;enable-background:accumulate"
       d="m 505.7021,-153.21882 c -2.34597,0 -4.67863,0.01 -7.01674,0.0428 l -0.0428,0 c -6.48882,0.0927 -12.95652,0.34032 -19.38158,0.68457 -0.28594,0.0152 -0.5699,0.0269 -0.85571,0.0428 -0.64285,0.0272 -1.28749,0.0478 -1.92532,0.0856 -1.8285,0.10831 -3.65344,0.25656 -5.47647,0.38505 -1.74241,0.12274 -3.48246,0.24398 -5.21977,0.38508 -7.26024,0.58963 -14.48248,1.32019 -21.6492,2.22482 -0.14177,0.0178 -0.28611,0.0247 -0.42785,0.0428 -3.84831,0.48919 -7.68942,1.04736 -11.50916,1.62582 -1.31453,0.19908 -2.62516,0.43221 -3.93622,0.64179 -0.66783,0.10803 -1.3441,0.18897 -2.01089,0.29948 -0.24261,0.0399 -0.48484,0.0881 -0.72734,0.12838 -1.7304,0.28927 -3.45466,0.59398 -5.17698,0.89848 -25.73934,4.55263 -50.78563,11.12673 -74.95928,19.55272 l -0.0428,-0.0428 c -2.36495,0.82452 -4.70876,1.70604 -7.05951,2.56709 -1.03755,0.38004 -2.09021,0.7261 -3.12331,1.11241 l 0.0428,0.0428 c -1.3836,0.51736 -2.77253,1.0107 -4.15013,1.54026 -0.99083,0.38081 -1.96376,0.81105 -2.95218,1.19798 -2.29715,0.90037 -4.60836,1.76133 -6.88836,2.69545 -0.10034,0.041 -0.19916,0.0873 -0.29951,0.12837 -1.58833,0.65197 -3.16926,1.34265 -4.74914,2.0109 -1.75616,0.74143 -3.51891,1.463 -5.26254,2.22482 -8.26725,3.61285 -16.40994,7.45808 -24.43022,11.50914 l -0.0428,0 c -0.7986,0.4034 -1.59955,0.83292 -2.39597,1.240758 -0.011,0.0059 -0.0315,-0.0059 -0.0428,0 -0.67574,0.346344 -1.33706,0.720127 -2.01091,1.069628 -1.07089,0.554883 -2.14264,1.106041 -3.20886,1.668619 -1.72654,0.911145 -3.46282,1.84982 -5.17699,2.781019 -1.05193,0.572473 -2.11886,1.131368 -3.16608,1.711402 -0.6161,0.34061 -1.22736,0.683129 -1.83976,1.02683 -1.75779,0.981929 -3.51827,1.991964 -5.26255,2.994948 -0.24433,0.140699 -0.48329,0.28676 -0.72735,0.427857 -2.12247,1.225365 -4.23006,2.465974 -6.33216,3.722292 -0.34016,0.202755 -0.68777,0.395216 -1.02685,0.598987 -0.14232,0.08549 -0.28564,0.171005 -0.42785,0.256714 -0.58847,0.354463 -1.16734,0.712734 -1.75419,1.069616 -1.61892,0.984389 -3.22814,1.992348 -4.8347,2.994948 -0.01,0.0068 -0.0325,-0.0068 -0.0428,0 -0.7988,0.498447 -1.60042,0.994738 -2.39594,1.497474 -0.84676,0.535447 -1.68107,1.085503 -2.52432,1.625831 -0.01,0.0068 -0.0328,-0.0068 -0.0428,0 -1.54434,0.98935 -3.08865,1.988953 -4.62078,2.994946 -1.72635,1.134462 -3.42333,2.30973 -5.1342,3.465577 -0.01,0.0068 -0.033,-0.0068 -0.0428,0 -0.63105,0.426016 -1.25352,0.854602 -1.88253,1.28356 -0.80255,0.547308 -1.59393,1.116264 -2.39596,1.668617 -0.33851,0.234021 -0.68896,0.449696 -1.02684,0.684557 -1.18844,0.822633 -2.3744,1.648551 -3.55115,2.48152 -0.0162,0.011 -0.0266,0.03188 -0.0428,0.04274 -0.2324,0.164669 -0.45245,0.34836 -0.68455,0.513427 -0.72612,0.516069 -1.45917,1.020922 -2.18204,1.540247 -1.42301,1.02367 -2.86703,2.041951 -4.27849,3.080519 -0.24582,0.180806 -0.48185,0.374846 -0.72735,0.556215 -0.0572,0.0422 -0.11394,0.08604 -0.17114,0.128371 -14.80488,10.946582 -28.94654,22.737169 -42.39991,35.254811 l -0.0428,-0.04274 c -1.15984,1.07917 -2.28066,2.1981 -3.42281,3.294448 -0.29297,0.277963 -0.60618,0.534238 -0.89848,0.812916 -0.17402,0.168023 -0.33966,0.345132 -0.51342,0.513416 -1.2326,1.178676 -2.45931,2.359703 -3.6795,3.551148 -0.37428,0.367424 -0.73825,0.744717 -1.11241,1.112415 -5.31133,5.2195871 -10.5052,10.5447017 -15.57375,16.001568 -1.17335,1.263493 -2.34984,2.529197 -3.50835,3.807863 -0.0541,0.05965 -0.11696,0.111466 -0.17115,0.171143 -0.11517,0.127134 -0.22704,0.257952 -0.34227,0.385072 -8.06896,8.900975 -15.78858,18.114466 -23.18946,27.596299 -0.86844,1.112622 -1.75093,2.216888 -2.60988,3.33722 -1.05597,1.377528 -2.12518,2.761489 -3.16609,4.150148 -0.0617,0.08232 -0.10954,0.174401 -0.17115,0.256702 -1.23626,1.650736 -2.46378,3.296193 -3.6795,4.963064 -0.57195,0.784713 -1.14406,1.564943 -1.7114,2.353175 -0.57727,0.801412 -1.13889,1.63368 -1.7114,2.438732 -1.12839,1.581946 -2.27312,3.152401 -3.38001,4.749137 -0.007,0.0096 0.007,0.03326 0,0.04274 -0.10938,0.159804 -0.23224,0.311362 -0.34228,0.47063 -0.99375,1.437397 -1.97355,2.872733 -2.95217,4.321278 -0.007,0.0096 0.007,0.03298 0,0.04274 -0.77225,1.143822 -1.54688,2.271604 -2.310386,3.422804 -6.171466,9.303751 -12.007501,18.842842 -17.54184,28.580352 -0.816612,1.43681 -1.636373,2.8754 -2.438743,4.32128 -0.05642,0.10006 -0.114778,0.19944 -0.17114,0.29949 -0.649499,1.17238 -1.285242,2.3301 -1.925324,3.50838 -0.20587,0.37622 -0.438185,0.7353 -0.641774,1.1124 l 0.04278,0.0428 c -5.804809,10.75387 -11.215261,21.76625 -16.215506,32.98721 l -0.04278,-0.0428 c -0.42298,0.94916 -0.827287,1.91023 -1.240765,2.86658 -0.06933,0.1583 -0.144765,0.31226 -0.213925,0.47065 -0.141969,0.32842 -0.285611,0.65634 -0.427849,0.98405 -8.127151,18.72477 -15.081456,38.07274 -20.836282,57.93084 l -0.04278,0.0428 -0.04278,0.0428 c -0.227918,0.78725 -0.460519,1.5643 -0.684561,2.35318 -0.525111,1.84961 -1.036984,3.70331 -1.540259,5.56204 -0.0226,0.0832 -0.0203,0.17335 -0.04279,0.25671 -1.047643,3.87132 -2.041022,7.77137 -2.994948,11.6803 -0.328945,1.35241 -0.666515,2.70772 -0.984055,4.06458 -0.03004,0.12795 -0.05558,0.25713 -0.08557,0.38505 -0.250212,1.06921 -0.48419,2.13698 -0.727345,3.20887 -0.313567,1.36868 -0.641966,2.73256 -0.941269,4.10735 -0.02784,0.12837 -0.05784,0.25665 -0.08557,0.38508 -0.400126,1.84509 -0.776058,3.70921 -1.155195,5.56203 -0.174329,0.85546 -0.343552,1.71004 -0.513419,2.56711 -0.180705,0.91173 -0.337831,1.8251 -0.51342,2.73823 -0.11552,0.5985 -0.228955,1.1977 -0.342279,1.79698 -0.158426,0.8408 -0.316526,1.68221 -0.470636,2.52431 -0.219775,1.19683 -0.430767,2.39405 -0.641774,3.59394 -0.09495,0.54152 -0.206307,1.08369 -0.299495,1.62583 -0.177366,1.02918 -0.342525,2.04913 -0.51342,3.0805 -0.22162,1.34022 -0.430882,2.6776 -0.641774,4.0218 -0.105515,0.67162 -0.239519,1.33839 -0.342279,2.01089 -0.165225,1.08216 -0.312319,2.16666 -0.470635,3.25165 -3.378685,23.15474 -5.134197,46.84558 -5.134197,70.93747 0,9.13013 0.274172,18.20509 0.770129,27.21124 l -0.04279,-0.0428 c 0.06495,1.1803 0.135244,2.36793 0.213926,3.55115 0.01154,0.18572 0.03102,0.37056 0.04279,0.5562 0.01319,0.19933 0.02995,0.40026 0.04278,0.59899 0.910814,14.09686 2.407274,28.01349 4.492423,41.75814 0.0261,0.172 0.05929,0.34146 0.08557,0.51342 0.0297,0.17107 0.05922,0.34219 0.08557,0.51341 0.283637,1.84298 0.594245,3.68316 0.898485,5.51927 0.07737,0.46928 0.1349,0.94314 0.213926,1.4119 0.224591,1.33213 0.450586,2.65092 0.684559,3.979 0.06572,0.37076 0.147369,0.74194 0.213926,1.11241 0.114695,0.64272 0.22513,1.28349 0.342279,1.92533 0.22024,1.19817 0.455564,2.39886 0.68456,3.59393 0.2169,1.13765 0.415869,2.28774 0.641774,3.42279 0.116276,0.58426 0.223892,1.17066 0.342281,1.75418 0.05238,0.25808 0.11835,0.5122 0.171138,0.77014 0.405468,1.97415 0.811934,3.93456 1.240766,5.90433 0.08379,0.38487 0.172002,0.77061 0.256709,1.15519 l 0.04278,0 c 3.945577,17.91839 8.858661,35.46476 14.71803,52.58272 0.582351,1.70133 1.196363,3.39864 1.79697,5.0914 0.353466,0.99917 0.709778,1.99886 1.069623,2.99494 0.502637,1.38759 0.982617,2.76849 1.497474,4.15015 0.326009,0.87487 0.653169,1.7374 0.984055,2.60989 0.04813,0.12686 0.08013,0.25821 0.128357,0.38506 0.658997,1.73365 1.333522,3.45179 2.010894,5.17698 0.04479,0.1138 0.08346,0.22851 0.128357,0.34228 0.0067,0.017 0.03604,0.0257 0.04278,0.0428 0.677457,1.72075 1.357863,3.46593 2.053679,5.17699 0.0409,0.10033 0.08737,0.19913 0.128358,0.29949 0.285148,0.69801 0.567409,1.40009 0.855699,2.09647 0.422326,1.02662 0.849751,2.05092 1.28355,3.08052 0.04227,0.10019 0.08603,0.19941 0.128357,0.29948 0.0073,0.0171 0.03552,0.0255 0.04279,0.0428 0.722562,1.71095 1.439864,3.43463 2.182034,5.1342 4.480666,10.26008 9.308561,20.32917 14.461322,30.20617 0.351232,0.67325 0.71534,1.33951 1.069623,2.0109 0.907531,1.73023 1.809081,3.46646 2.738239,5.17699 0.0092,0.0169 0.03361,0.0258 0.04279,0.0428 0.171675,0.3125 0.34268,0.62868 0.51342,0.94127 0.768725,1.40752 1.528215,2.7939 2.310388,4.19293 0.455931,0.81548 0.908521,1.62592 1.36912,2.43874 0.266921,0.47107 0.54447,0.94183 0.812914,1.4119 6.3692,11.15344 13.16233,22.02338 20.36565,32.60215 0.0982,0.14416 0.20118,0.28379 0.29949,0.42785 1.77386,2.59908 3.56835,5.18146 5.3909,7.74408 0.14196,0.19998 0.28562,0.39924 0.42786,0.59899 0.99139,1.38952 1.98937,2.77153 2.99494,4.15015 0.70855,0.97281 1.423,1.94185 2.13925,2.90937 0.38949,0.52573 0.76365,1.05893 1.1552,1.58305 11.59233,15.51723 24.11547,30.31458 37.43685,44.32521 l 0,0.0428 c 0.15364,0.16156 0.31679,0.3093 0.47064,0.47065 0.82368,0.8594 1.64806,1.71781 2.48152,2.56708 0.52621,0.54387 1.05434,1.08443 1.58305,1.62584 0.0988,0.10087 0.20075,0.19852 0.29949,0.29949 0.52213,0.53373 1.05849,1.0517 1.58305,1.58304 0.74434,0.75398 1.47561,1.51847 2.22482,2.2676 1.08879,1.08963 2.19582,2.17184 3.29444,3.25166 0.28809,0.28265 0.5669,0.57375 0.8557,0.85571 0.20152,0.19712 0.39714,0.40219 0.59899,0.59898 0.35439,0.34485 0.71419,0.68307 1.06963,1.02685 0.14494,0.14049 0.28272,0.28766 0.42784,0.42784 0.69722,0.6726 1.39526,1.34244 2.09646,2.01089 1.17568,1.11957 2.36433,2.22517 3.55116,3.33723 1.66494,1.55603 3.31915,3.08797 5.00585,4.62078 0.7544,0.68722 1.50876,1.37128 2.26759,2.05368 0.18755,0.16865 0.3686,0.34483 0.5562,0.51342 1.04319,0.93336 2.11484,1.85653 3.1661,2.78102 0.91442,0.81118 1.81457,1.63836 2.73823,2.43873 0.008,0.007 0.0346,-0.007 0.0428,0 0.30517,0.26437 0.59266,0.54935 0.89849,0.81292 l 0.0856,0 c 2.45975,2.11922 4.89959,4.21887 7.4018,6.28939 0.0701,0.058 0.14367,0.11312 0.21393,0.17115 1.32207,1.09273 2.64522,2.17266 3.97899,3.25164 18.40669,14.89068 37.92325,28.48353 58.4015,40.60294 0.0167,0.01 0.0259,0.0329 0.0428,0.0428 0.49436,0.29248 1.00201,0.56491 1.49747,0.8557 1.12587,0.66047 2.24911,1.3172 3.38002,1.9681 1.64403,0.94719 3.30699,1.89534 4.96305,2.82381 9.32598,5.22858 18.84526,10.14108 28.53759,14.76082 l 0,0.0428 c 1.15116,0.5486 2.30944,1.086 3.46558,1.62582 0.011,0.006 0.0311,-0.006 0.0428,0 1.77471,0.82853 3.56205,1.67402 5.34812,2.48153 0.0124,0.006 0.0311,-0.006 0.0428,0 1.78575,0.80718 3.5507,1.60962 5.34812,2.39596 0.0124,0.006 0.0308,-0.006 0.0428,0 0.74251,0.32481 1.48043,0.66281 2.22482,0.98405 2.88295,1.2438 5.7739,2.44733 8.68535,3.63673 1.31837,0.53867 2.65489,1.05563 3.979,1.58304 0.20145,0.0803 0.3974,0.17674 0.59899,0.25671 0.31466,0.1248 0.62629,0.26088 0.94128,0.38506 1.74239,0.68843 3.51104,1.33888 5.26255,2.0109 0.58808,0.224 1.165,0.46278 1.75417,0.68456 1.48367,0.5623 2.95841,1.12387 4.44963,1.66861 l 0,-0.0428 c 7.43153,2.71425 14.95189,5.25821 22.5477,7.61573 l -0.0428,0.0428 c 1.83351,0.56931 3.67656,1.07766 5.51928,1.6258 1.47417,0.43447 2.92677,0.90648 4.40684,1.32636 2.3678,0.67981 4.76266,1.32338 7.14509,1.9681 0.96784,0.26186 1.93917,0.51408 2.90939,0.77012 28.84565,7.61238 58.74103,12.65499 89.42059,14.8464 0.45841,0.0327 0.91036,0.0541 1.36912,0.0856 0.1993,0.0137 0.39964,0.0293 0.59898,0.0428 2.72129,0.18339 5.43858,0.3321 8.17194,0.47063 0.76938,0.0396 1.54007,0.0924 2.31039,0.12837 2.02039,0.0929 4.04874,0.14569 6.07546,0.21392 0.57176,0.0194 1.1391,0.0683 1.71141,0.0856 l 0,-0.0428 c 4.97245,0.15013 9.96588,0.2567 14.97474,0.2567 8.88372,0 17.71739,-0.25771 26.48389,-0.72734 l 0,0.0428 c 1.2303,-0.0659 2.44998,-0.17858 3.67951,-0.25669 0.37098,-0.0237 0.74156,-0.0183 1.11242,-0.0428 0.82728,-0.0524 1.65535,-0.11463 2.48153,-0.17114 2.42982,-0.16634 4.85354,-0.35437 7.27344,-0.5562 21.80072,-1.81837 43.20247,-5.07431 64.09189,-9.66941 0.61215,-0.1347 1.22676,-0.25603 1.83976,-0.38507 0.19923,-0.0447 0.39984,-0.0835 0.59899,-0.12837 18.65286,-4.20394 36.90536,-9.51105 54.67919,-15.78763 2.14901,-0.7589 4.2827,-1.52231 6.41774,-2.31039 1.45905,-0.53582 2.91306,-1.07571 4.36407,-1.62583 0.66989,-0.25466 1.34241,-0.51261 2.0109,-0.77013 18.92112,-7.28925 37.2828,-15.74464 54.97869,-25.24313 l 0.0428,0 c 0.70205,-0.377 1.39444,-0.77472 2.09646,-1.1552 0.79721,-0.43205 1.60379,-0.84736 2.39597,-1.28354 0.91877,-0.5066 1.82312,-1.02764 2.73823,-1.54027 1.70158,-0.95116 3.4025,-1.93846 5.09141,-2.90937 1.0682,-0.61423 2.14178,-1.22197 3.20888,-1.83976 0.41595,-0.24337 0.8256,-0.48278 1.24077,-0.72734 0.21517,-0.12673 0.42706,-0.25783 0.64177,-0.38507 1.24128,-0.73381 2.48811,-1.48033 3.72229,-2.22482 0.44452,-0.26865 0.88312,-0.54333 1.32633,-0.81291 1.85976,-1.12997 3.71875,-2.26875 5.56205,-3.42281 9.04678,-5.66401 17.89174,-11.61228 26.52669,-17.84132 0.31474,-0.22704 0.62709,-0.45677 0.94126,-0.68455 0.37178,-0.27009 0.74185,-0.54164 1.11241,-0.81292 1.95443,-1.4254 3.88652,-2.86763 5.81875,-4.32128 19.44115,-14.62581 37.73976,-30.68905 54.76478,-48.00473 0.39551,-0.40225 0.80387,-0.79453 1.19798,-1.19798 1.1913,-1.22005 2.37261,-2.44703 3.55115,-3.67951 0.16775,-0.17517 0.34593,-0.33802 0.51342,-0.51341 1.39274,-1.46081 2.77548,-2.92886 4.15015,-4.40687 1.28191,-1.37579 2.54175,-2.75903 3.80784,-4.15012 0.25802,-0.28386 0.51281,-0.57122 0.77014,-0.8557 39.68356,-43.86869 71.49307,-94.99592 93.18569,-151.15928 0.75855,-1.96395 1.49108,-3.92815 2.22481,-5.90432 2.19253,-5.90513 4.27913,-11.87337 6.2466,-17.88412 0.0902,-0.27515 0.20076,-0.54195 0.29949,-0.81291 0.0838,-0.25733 0.1734,-0.51259 0.25672,-0.77013 0.56217,-1.73783 1.08271,-3.47344 1.62584,-5.21976 0.2034,-0.65406 0.39825,-1.31288 0.59898,-1.96811 0.38655,-1.25459 0.77907,-2.50627 1.15519,-3.76508 0.004,-0.0138 -0.004,-0.0297 0,-0.0428 0.20422,-0.6865 0.39792,-1.37099 0.59899,-2.05368 0.1252,-0.42787 0.26104,-0.85521 0.38506,-1.28355 0.004,-0.0124 -0.004,-0.0291 0,-0.0428 4.81165,-16.6229 8.77226,-33.61036 11.80866,-50.9141 0.26593,-1.51528 0.51684,-3.05389 0.77013,-4.578 0.26524,-1.59615 0.52042,-3.1908 0.77013,-4.79192 0.0648,-0.41581 0.1502,-0.82481 0.21392,-1.24076 0.14845,-0.97161 0.28516,-1.9359 0.42785,-2.90937 1.18501,-8.08475 2.16953,-16.22141 2.95216,-24.43022 0.0258,-0.2707 0.0602,-0.54208 0.0856,-0.81291 0.15866,-1.69412 0.28657,-3.39229 0.42785,-5.09141 0.16465,-1.98022 0.32976,-3.96024 0.47064,-5.94712 0.0856,-1.22479 0.1799,-2.45225 0.25671,-3.67951 0.0389,-0.61304 0.0489,-1.22608 0.0855,-1.83974 0.0269,-0.4572 0.0598,-0.91157 0.0856,-1.36912 0.0566,-0.99632 0.12109,-1.99563 0.17115,-2.99493 0.0339,-0.66788 0.0544,-1.34234 0.0856,-2.01091 0.35607,-7.64093 0.5562,-15.33204 0.5562,-23.0611 0,-6.6206 -0.12343,-13.21024 -0.38506,-19.76664 -0.008,-0.19977 -0.0346,-0.39929 -0.0428,-0.599 -0.0662,-1.57143 -0.12811,-3.13866 -0.21393,-4.70634 -0.0638,-1.25955 -0.14054,-2.50808 -0.21393,-3.76508 -0.16843,-2.88502 -0.33775,-5.77125 -0.55621,-8.64257 -0.01,-0.12906 -0.0329,-0.25597 -0.0428,-0.38506 -1.95593,-25.44366 -5.87899,-50.33265 -11.59471,-74.5314 -0.27369,-1.15851 -0.5318,-2.30986 -0.81293,-3.46558 -0.16715,-0.68507 -0.34336,-1.36975 -0.51343,-2.05368 -0.45811,-1.84263 -0.93284,-3.68499 -1.4119,-5.51926 -1.47421,-5.64466 -3.03664,-11.25162 -4.70633,-16.81449 -0.4598,-1.53158 -0.94047,-3.05265 -1.4119,-4.57798 -0.0653,-0.21136 -0.10515,-0.43057 -0.17115,-0.64178 l -0.0428,0 c -0.46448,-1.48624 -0.8908,-2.96954 -1.36911,-4.44964 -0.0654,-0.20239 -0.14815,-0.39698 -0.21393,-0.59898 -0.32792,-1.01015 -0.64973,-2.0305 -0.98406,-3.03774 -0.29684,-0.88398 -0.59741,-1.76936 -0.89849,-2.65267 -0.16888,-0.49917 -0.34295,-0.99904 -0.51342,-1.49748 -0.28782,-0.84054 -0.56335,-1.68596 -0.85569,-2.5243 -0.19017,-0.54537 -0.40664,-1.08092 -0.59899,-1.62583 -0.87301,-2.47894 -1.74086,-4.94144 -2.65267,-7.40181 -0.4665,-1.25647 -0.93827,-2.5103 -1.41191,-3.76507 -0.72735,-1.91348 -1.47412,-3.83134 -2.22482,-5.73319 -0.0163,-0.0415 -0.0323,-0.0845 -0.0428,-0.12837 -0.006,-0.0124 0.006,-0.0305 0,-0.0428 -0.68643,-1.7349 -1.38665,-3.45737 -2.09647,-5.177 -0.56185,-1.3753 -1.13739,-2.73837 -1.71139,-4.10735 -9.74359,-23.2375 -21.23505,-45.54567 -34.31355,-66.787329 -0.52103,-0.846231 -1.06033,-1.679832 -1.58305,-2.524305 -0.74153,-1.197973 -1.46852,-2.405319 -2.22482,-3.593948 l -0.0428,0 c -5.0049,-7.864921 -10.22415,-15.596978 -15.6593,-23.146663 -1.63224,-2.267246 -3.29304,-4.522205 -4.96307,-6.760011 -0.0922,-0.123698 -0.16442,-0.261442 -0.25669,-0.385072 -1.29714,-1.734685 -2.61663,-3.460271 -3.93623,-5.176979 -0.1913,-0.249196 -0.40661,-0.479164 -0.59899,-0.727344 -1.48471,-1.923779 -2.97975,-3.832397 -4.49242,-5.73318 -0.3218,-0.404369 -0.61821,-0.837449 -0.94127,-1.240773 -0.26536,-0.331594 -0.54668,-0.653167 -0.81292,-0.984045 -1.35025,-1.67678 -2.69264,-3.34746 -4.06457,-5.00585 -0.14174,-0.171308 -0.28587,-0.342287 -0.42785,-0.513416 l -0.0428,0 C 871.52151,11.985717 861.90393,1.355142 851.83293,-8.8196197 c -0.32619,-0.3295178 -0.65695,-0.6555027 -0.98406,-0.9840584 -0.25629,-0.2574289 -0.51304,-0.5137729 -0.77013,-0.7701299 -1.10582,-1.105956 -2.22085,-2.199102 -3.33722,-3.294448 -0.27333,-0.268094 -0.53896,-0.545452 -0.81291,-0.812915 -1.20563,-1.177343 -2.41901,-2.343472 -3.63674,-3.508363 -0.18931,-0.181039 -0.36659,-0.375465 -0.5562,-0.556201 -0.0439,-0.04192 -0.0844,-0.08645 -0.12837,-0.128371 -0.1393,-0.132769 -0.28837,-0.252536 -0.42785,-0.385058 -1.22493,-1.163983 -2.44634,-2.317866 -3.6795,-3.46559 -0.36737,-0.342011 -0.74398,-0.685947 -1.11242,-1.026831 -1.06515,-0.985323 -2.13483,-1.976102 -3.20887,-2.952175 -0.4807,-0.436943 -0.97224,-0.848485 -1.45468,-1.283546 -0.21702,-0.195676 -0.42441,-0.403681 -0.64179,-0.598986 -10.10489,-9.07921 -20.60538,-17.751495 -31.44695,-25.970468 -2.39654,-1.816822 -4.79972,-3.617739 -7.23066,-5.390909 -0.2398,-0.174922 -0.48721,-0.338931 -0.72735,-0.513414 -2.68765,-1.952944 -5.40038,-3.877065 -8.12914,-5.775981 -11.20892,-7.800158 -22.74453,-15.136753 -34.61305,-21.991462 -0.0275,-0.01595 -0.058,-0.02694 -0.0855,-0.04274 -1.93201,-1.11533 -3.87013,-2.247785 -5.81877,-3.337233 -0.21253,-0.11875 -0.42903,-0.223756 -0.64177,-0.342272 -1.48845,-0.830825 -2.99421,-1.665635 -4.49242,-2.481532 -0.011,-0.0055 -0.0318,0.0055 -0.0428,0 -0.41598,-0.225969 -0.82823,-0.455442 -1.24076,-0.684559 -0.28534,-0.153908 -0.57003,-0.317271 -0.85571,-0.470629 -0.83728,-0.450756 -1.68408,-0.880387 -2.52431,-1.326345 -0.18543,-0.09813 -0.36952,-0.201669 -0.5562,-0.299486 -0.41178,-0.217282 -0.82829,-0.425644 -1.24076,-0.641774 -1.17026,-0.614748 -2.33243,-1.234604 -3.50837,-1.839761 -0.15867,-0.08146 -0.31183,-0.174766 -0.47064,-0.256715 -0.34089,-0.174608 -0.68549,-0.339578 -1.02683,-0.513408 -11.5803,-5.89739 -23.41951,-11.32601 -35.51154,-16.30107 -1.28311,-0.52792 -2.56205,-1.0658 -3.85064,-1.58305 -0.5707,-0.22907 -1.13965,-0.45758 -1.71141,-0.68456 -1.47599,-0.58594 -2.9666,-1.1823 -4.44964,-1.75419 -0.71021,-0.27388 -1.42461,-0.54517 -2.13925,-0.81291 -1.26987,-0.4828 -2.53292,-0.93942 -3.80786,-1.41191 -10.34603,-3.83408 -20.86859,-7.30204 -31.53251,-10.43952 -0.14204,-0.0418 -0.24709,-0.0862 -0.38508,-0.12837 -2.71361,-0.7959 -5.43886,-1.56069 -8.17193,-2.31038 -2.46487,-0.67615 -4.92146,-1.37269 -7.40179,-2.01091 -0.27072,-0.0697 -0.54204,-0.14472 -0.81292,-0.21391 -1.67363,-0.43027 -3.36808,-0.82813 -5.04862,-1.24077 -1.73433,-0.42583 -3.47813,-0.83433 -5.21977,-1.24075 -0.2154,-0.0503 -0.42628,-0.12123 -0.64177,-0.17115 -0.41174,-0.0951 -0.82865,-0.1627 -1.24077,-0.25671 -1.49779,-0.34286 -2.9893,-0.69888 -4.49243,-1.02683 l -0.0428,0.0428 c -19.83551,-4.32438 -40.1395,-7.45866 -60.79744,-9.28434 -3.30039,-0.29168 -6.60714,-0.54463 -9.92612,-0.77014 -0.28554,-0.0194 -0.57003,-0.0666 -0.8557,-0.0856 -0.45581,-0.0304 -0.91292,-0.0565 -1.36912,-0.0856 -3.14511,-0.19934 -6.29442,-0.37405 -9.45548,-0.51341 -0.29864,-0.0138 -0.59969,-0.03 -0.89848,-0.0428 -2.77745,-0.11737 -5.55378,-0.18604 -8.34307,-0.25669 -0.55417,-0.0141 -1.11399,-0.0307 -1.66862,-0.0428 -0.3273,-0.007 -0.65662,0.007 -0.98405,0 -3.30066,-0.0659 -6.60965,-0.12838 -9.92612,-0.12838 -0.0143,0 -0.0284,0 -0.0428,0 z m 16.55779,25.84211 9.71219,31.190237 -2.78104,1.625832 -9.96889,54.03741 -21.30692,-26.655026 -9.54105,-30.077833 33.88571,-30.12062 z m -61.2253,0.89849 -15.44538,10.99573 -0.38506,-9.28432 c 5.25323,-0.65911 10.52352,-1.23131 15.83044,-1.71141 z m 87.06741,0.34228 c 9.59172,0.93534 19.08521,2.20616 28.49481,3.7223 l -21.13579,12.40764 c -2.26003,-4.92896 -4.76493,-10.40492 -7.35902,-16.12994 z m -127.15694,5.04863 0.55622,22.761596 -18.18362,21.22134 -22.76162,-29.179346 -6.5461,-3.72228 c 15.32336,-4.47323 30.99439,-8.20775 46.93512,-11.08131 z m 197.92329,7.53016 c 2.77696,0.72194 5.54403,1.45246 8.30028,2.22481 l 3.08053,15.445367 -40.43181,22.847163 c 0,0 -14.91703,12.448166 -26.95453,23.831237 l 3.50837,-21.863118 52.49716,-42.485459 z m -258.33568,7.70128 14.16183,9.327124 19.6811,29.863903 -19.72388,22.975522 -34.44191,-26.312755 -4.83469,-26.82617 c 8.27094,-3.242744 16.66083,-6.258874 25.15755,-9.027624 z m 297.65508,4.40684 c 2.94493,1.05717 5.85418,2.179209 8.77092,3.294459 l -7.35902,28.152495 -8.30029,-25.842111 1.11242,-0.684559 5.77597,-4.920284 z m 16.98564,6.50333 c 15.92995,6.446368 31.43838,13.782853 46.42169,21.90589 l -0.5562,21.86312 -8.0008,-4.278493 -17.58462,5.904323 -28.32365,28.280859 0.94128,-22.41932 -2.0537,-6.460524 9.156,-44.795855 z m -193.21695,3.422791 3.93621,14.632465 -16.2155,-3.722291 12.27929,-10.910174 z m 150.6031,7.230668 8.12915,40.60292 -14.58967,72.777225 -20.70794,10.353958 11.80866,-45.9938271 -13.69119,-41.0735759 -10.61068,-8.257485 8.64258,-9.327128 31.01909,-19.082087 z m -166.64747,7.059511 22.41933,9.327128 1.75419,6.588882 26.4411,35.511512 -1.02683,5.562051 -11.72309,76.285588 -23.18946,35.297599 -22.54766,-70.766338 6.41774,-96.522877 1.45468,-1.283545 z m -9.28433,8.385855 -5.69041,54.465255 -1.96811,6.5460962 -5.81875,-18.2691712 -6.76002,-8.685356 20.23729,-34.056824 z m -181.10881,0.684559 32.64494,24.472995 27.38239,52.796651 -16.515,46.550029 -32.38823,-66.102758 -38.76318,-40.602934 c 8.99659,-6.019513 18.20869,-11.72845 27.63908,-17.113983 z m 476.58183,13.220549 c 0.84098,0.543941 1.68715,1.076557 2.52432,1.62583 l -2.26761,1.026845 -0.25671,-2.652675 z m -41.03079,7.316226 9.54106,4.620777 -21.26413,57.973632 -33.92849,5.818752 0.98406,-24.0879368 15.3598,-20.8362742 29.3077,-23.48895 z m -128.61162,2.909389 13.22054,8.856485 11.76588,31.2758052 -5.39091,45.6943418 -17.19955,8.59977 -16.55779,-38.634817 -9.19878,-9.19877 -0.47063,-20.964632 23.83124,-25.628183 z m 189.53744,3.422791 c 20.27249,14.673286 39.3116,30.931842 56.904,48.646504 l -0.47063,7.615725 -42.9989,-3.893435 -37.18015,0 -9.79775,-3.936219 13.39171,-35.126454 12.06534,5.818751 19.55274,25.414268 -11.72308,-27.38237 -16.77171,-8.942058 17.02843,-8.214712 z m -526.42633,7.786869 31.3186,36.752271 11.68028,29.22213 -31.23302,-1.839745 -12.66435,8.428627 0.89849,-41.6725496 0,-30.8907334 z m -41.11637,15.402581 -6.93117,13.8623214 -4.62078,-3.63672 c 3.79118,-3.4711434 7.64556,-6.8816604 11.55195,-10.2256014 z m 221.96845,0.128371 4.96306,7.530155 21.52083,60.626292 9.02763,69.525563 -3.16607,4.79191 -13.86235,32.00315 -9.58383,-32.00315 -38.03583,-55.663231 0.85569,-6.931167 21.52085,-21.520833 -5.86154,-37.137356 12.62156,-21.221333 z m -247.16879,23.103878 19.16766,24.130723 2.18203,40.474562 -37.43685,-33.842895 -4.02178,-9.455485 c 6.47817,-7.308158 13.18325,-14.426041 20.10894,-21.306905 z m 380.52955,27.12567 4.62078,6.20381 4.27851,19.338801 -8.21472,4.107363 -0.68457,-29.649974 z m -286.83047,10.097245 24.47301,12.236504 14.16183,35.425939 -9.28434,77.526364 -44.96701,-37.18015 -13.69119,-43.04166 0.72735,-33.201136 28.58035,-11.765861 z m 580.93439,0 7.23066,1.112415 c 8.75775,10.893942 17.0641,22.166042 24.81529,33.842895 l -13.6912,19.124877 -30.12061,-3.20886 11.76586,-33.243929 0,-17.627398 z m -121.2954,5.861537 88.0087,0 -7.78687,41.073563 -37.35128,31.832017 -3.7223,-2.48153 -11.12409,-3.46558 -2.56711,-20.02337 -40.30344,-30.163389 14.84639,-16.771711 z m -607.16157,21.050204 2.82381,0.470629 25.41427,25.414267 13.09219,20.75072 -3.55114,17.71296 -36.58116,3.29445 -28.879858,-22.41931 C 106.11986,98.84919 115.36554,83.752505 125.42925,69.262994 z m 562.96468,4.877492 46.165,26.911734 1.88253,7.48738 -48.81765,-3.59395 -42.9989,10.31118 7.1023,-30.035041 4.578,-1.796973 32.08872,-9.28433 z M 892.17877,87.01875 c 3.31145,5.27118 6.56906,10.58921 9.66941,16.00158 l -4.96307,-3.93622 -10.18281,-1.1124 5.47647,-10.95296 z m -264.32558,7.57293 -14.54688,43.59789 -11.16687,-33.50063 25.71375,-10.09726 z m -234.80392,9.02764 5.0914,9.15598 25.41428,41.07357 4.49242,41.58697 -20.10893,46.42169 -13.30614,-13.94789 -6.28938,-85.82663 4.70635,-38.46369 z m 194.41491,6.80281 6.2894,55.14981 -33.24393,27.51073 -33.28671,3.80786 29.3505,-74.36025 30.89074,-12.10815 z m 115.81892,10.18281 37.30851,4.53521 5.26255,21.09299 -77.78307,38.89154 -44.49639,2.43874 c 7.53102,-9.34721 19.03932,-20.02336 19.03932,-20.02336 l -3.89343,-27.38239 1.15519,-4.92027 63.40732,-14.63246 z m -611.568419,5.64763 12.578779,15.74487 -21.691978,9.92609 -2.096464,-1.54024 c 3.499727,-8.17565 7.257408,-16.20739 11.209663,-24.13072 z m 670.483339,1.49746 4.79191,0.59899 -4.2357,3.59394 -0.55621,-4.19293 z m -587.90834,0.0856 2.82382,4.49241 -3.63674,0.34228 0.81292,-4.83469 z m 683.48998,2.5243 39.10545,7.82965 31.83203,20.10894 c 3.72197,9.1652 7.13231,18.48981 10.2684,27.93859 l -16.64337,-1.11242 -56.0911,-18.69704 -0.64177,-0.85569 -51.34197,-21.52084 12.23651,-11.72308 31.27582,-1.96811 z m -61.2253,30.63404 14.20461,4.87748 17.67019,15.3598 -3.89343,33.24392 13.69119,19.55273 -5.86154,-19.55273 7.82964,-35.21202 -4.32127,-4.83471 14.07625,4.83471 35.21203,37.18013 12.2793,41.50142 -85.86944,1.36911 -6.5889,-44.83864 -29.99225,-31.44694 6.50331,-7.65852 15.06031,-14.37574 z m -650.71668,14.37574 -5.86154,15.61652 19.55273,11.76586 5.47648,-1.54025 6.2466,24.98641 1.88255,-27.25402 21.6064,-5.98988 33.24392,27.38236 43.0417,46.97788 5.81875,70.38127 -17.58462,23.48894 -15.61652,42.99889 -29.35049,31.2758 -29.30771,-5.81874 -37.18014,-5.90433 -44.58195,1.19798 -19.980585,-26.61225 -36.837862,-16.55778 c -1.83049,-16.6605 -2.781024,-33.59472 -2.781024,-50.74297 0,-42.24886 5.708418,-83.16515 16.386646,-122.02271 l 1.711399,-2.35317 31.318601,-25.41427 52.796665,-5.86154 z m 736.3294,13.17777 40.17509,8.34307 19.63831,-1.32634 c 3.15445,10.23712 5.98439,20.61877 8.42865,31.14746 l -26.14162,30.80517 -12.62157,0.21393 -10.8246,-43.2556 -18.65426,-25.92769 z m -112.39611,4.40687 25.41427,25.41426 7.01673,40.60292 -32.431,-18.73982 0,-47.27736 z m -12.36487,10.739 3.50837,32.64494 -24.38743,-8.17193 20.87906,-24.47301 z m 197.02481,42.27156 c 1.93567,10.33841 3.5186,20.79136 4.74913,31.36137 l -17.28513,-10.05447 12.536,-21.3069 z m -317.67842,34.99809 50.87132,0 37.13737,9.79777 25.62818,25.62817 -4.10735,25.20036 6.50331,-22.8044 11.12409,11.08131 35.21204,0 22.41933,10.26839 10.8246,22.97553 23.44616,31.31859 15.6593,25.41426 27.3824,17.58461 22.7188,15.61654 -1.19797,27.42515 2.82381,-26.26996 18.65425,12.79269 c -20.86248,67.42856 -56.83992,128.17978 -103.9675,178.37052 l -7.48736,-0.59899 -44.96701,1.9681 -45.00979,13.6912 -27.38239,-7.82964 -76.28559,-31.27582 -52.79668,-25.45705 -33.24391,-15.61652 -27.3824,-27.38236 -33.24391,-46.9779 -9.79777,-39.10546 3.93623,-80.17901 21.47805,-66.48784 48.90322,-23.48893 75.42991,-14.37575 1.19798,39.40495 5.51928,-40.6885 z m 297.31277,3.93623 27.08288,13.52003 c 0.75485,10.76743 1.15521,21.64269 1.15521,32.60214 0,4.98367 -0.0992,9.94379 -0.25671,14.88917 l -6.46053,-2.35317 -30.07784,-6.50331 -3.1661,-36.53836 -3.42278,-13.73397 15.14587,-1.88253 z m -27.68188,3.46558 4.19294,14.11903 4.92027,32.38821 -4.92027,-1.06962 -58.6582,-31.31859 -15.6593,-7.82966 50.87132,-3.89341 19.25324,-2.39596 z m -62.08099,62.20933 48.68931,22.33375 30.16339,44.6247 -1.32633,29.73555 -40.56016,-31.31858 -25.45706,-37.18013 -11.50915,-28.19529 z m 89.76287,14.50409 26.74062,3.1233 c -0.9438,11.78195 -2.33404,23.44101 -4.15015,34.95531 l -2.99495,-0.17112 -19.59552,-37.90749 z m -886.162392,28.7515 17.755764,10.35396 14.247396,21.39248 -4.492422,0.12837 -23.702876,-8.47143 c -1.468158,-7.73086 -2.732408,-15.54044 -3.807862,-23.40333 z m 878.717822,28.83706 11.338,16.72893 6.24662,19.68107 c -0.42916,1.48129 -0.83993,2.97458 -1.28356,4.44965 l -19.12489,-14.76082 2.82383,-26.09882 z m -868.192719,24.473 7.230661,2.05368 44.967008,7.82964 27.3396,1.28357 -23.40337,14.33294 -29.350505,11.76588 -14.418537,2.56709 C 66.094409,473.9551 61.953351,460.67346 58.427971,447.1398 z m 109.786249,20.36564 23.83124,12.36486 -16.85729,31.91758 6.93117,24.21629 -49.97286,-4.66356 -23.48894,-15.65929 -28.323662,-4.49243 c -1.465417,-3.43332 -2.894905,-6.87829 -4.278498,-10.35396 l 24.81528,-2.73824 21.47807,-11.76586 39.14824,0 6.71725,-18.82539 z m 49.8445,27.29681 17.75576,11.0813 -1.9681,13.6912 -39.10548,17.62739 1.96811,-33.24392 9.75497,-5.86153 11.59474,-3.29444 z m -125.274414,43.17003 15.873234,7.05951 -8.3003,7.27345 c -2.602751,-4.72596 -5.133615,-9.50736 -7.572934,-14.33296 z m 227.145434,3.1233 9.75497,46.9351 -1.9681,19.59552 -42.9989,29.30768 -0.42786,3.80787 c -0.80658,-13.20091 -1.54025,-25.91649 -1.54025,-29.22212 0,-7.82355 7.82965,-25.41427 7.82965,-25.41427 l -4.19293,-25.15755 33.54342,-19.85223 z m 89.93401,5.86154 11.38081,7.1023 16.00157,41.80091 15.6593,27.38238 43.0417,35.21203 2.09645,16.94283 -2.09645,-1.28355 -42.01485,3.08053 -38.1642,-48.0903 -19.59552,-41.07357 13.69119,-41.07356 z m -287.51502,17.62741 15.65929,0 -11.72308,25.41426 -1.79697,1.36911 c -4.94301,-7.17245 -9.70953,-14.48939 -14.24739,-21.94875 l 12.10815,-4.83469 z m 152.69957,2.31039 5.73319,17.24233 -7.82966,23.48895 9.19878,47.27737 -23.66008,14.20461 4.70633,-16.51498 0,-35.21203 -25.41428,-15.6593 4.96307,-22.41931 24.34464,-10.82461 7.95801,-1.58303 z m -105.72167,11.38079 14.71802,1.9681 12.66436,33.24393 -5.90432,39.10546 1.36911,16.64333 c -9.43331,-8.67279 -18.48829,-17.74202 -27.16845,-27.16844 l 4.32128,-12.96384 0,-17.58462 -8.81371,-20.45121 8.81371,-12.79271 z m 294.87404,2.01089 29.77836,21.43527 45.00978,21.52084 23.44617,52.83942 17.62739,33.24392 -11.937,26.52668 -3.72229,-14.8036 -17.6274,-18.09805 -25.41428,-28.40921 -1.88254,-5.81876 -0.0856,-14.16181 -13.69119,-27.38237 -38.03585,-31.06189 -3.46559,-15.83044 z m -260.85999,4.8347 10.95296,6.8456 0.77013,-0.34228 3.1233,21.86312 25.45706,7.82964 3.89343,25.41426 -4.36406,29.00822 -23.01832,8.12914 -13.34891,-1.75419 c -2.63503,-2.22491 -5.24591,-4.47735 -7.82965,-6.76003 l -0.34228,-20.79348 11.76586,-50.87133 -7.05952,-18.56867 z m -50.05842,16.47221 10.14004,13.81954 -7.31622,16.72893 c -5.40025,-6.21528 -10.63721,-12.58046 -15.7021,-19.0821 l 7.40181,-3.50837 5.47647,-7.958 z m 215.50792,50.99969 11.76586,25.41426 3.89344,2.78102 0,7.01673 -3.89344,23.44616 -25.45706,17.6274 -1.92531,19.55273 -13.6912,11.72309 -0.12837,0.21391 c -7.39516,-2.81986 -14.69968,-5.84229 -21.9059,-9.02763 l -3.4228,-14.63245 5.90432,-41.07355 15.61653,-27.38238 33.24391,-15.65929 z m 226.88871,9.79774 36.32445,9.58384 c 7.92769,9.64244 16.45415,20.61996 18.44033,25.5854 1.07943,2.69862 1.87284,7.83287 2.43874,13.77676 l -43.51232,-15.70204 -13.6912,-33.24393 z m 209.43246,14.58968 c -8.00542,6.99722 -16.24876,13.71578 -24.72972,20.15172 l -11.16688,-9.6694 10.31117,-3.59394 25.58543,-6.88838 z m -144.52764,2.56709 1.62582,0.42785 35.16925,15.65931 31.3186,5.86154 21.86312,-7.57295 17.92691,11.937 c -17.03602,12.08899 -34.92067,23.05835 -53.56678,32.77328 l -35.12647,-17.58461 -8.12914,-2.95216 c -0.33187,-8.602 -1.66862,-16.60056 -1.66862,-16.60056 l -9.41269,-21.9487 z m -261.4162,11.76587 22.46211,16.04436 -3.93621,31.2758 -33.84292,36.11051 c -11.69098,-3.13069 -23.22404,-6.6858 -34.52748,-10.69622 l 15.57374,-9.75498 1.96811,-11.72308 27.38238,-25.41427 4.92027,-25.84211 z m -112.52448,0.38506 -3.67951,42.65661 c -9.30403,-5.08496 -18.39747,-10.47675 -27.29682,-16.17271 l -0.29949,-1.02685 0,-10.18281 13.69118,-5.47647 17.58464,-9.79777 z m 214.73779,5.1342 8.2575,37.90749 3.89343,39.10543 17.62742,11.76588 0.12836,3.89343 c -9.36423,0.56935 -18.81617,0.85569 -28.32365,0.85569 -2.90106,0 -5.7971,-0.032 -8.68536,-0.0856 l 1.66862,-14.46131 3.89343,-23.48895 -13.69119,-19.55272 -13.6912,-13.69118 -3.29443,-19.85223 24.81529,-1.66862 7.40179,-0.72734 z m 20.06615,5.47648 29.26493,24.60135 9.75497,29.35049 0.5562,0.68456 -4.44963,26.69781 -1.92534,3.85064 c -2.61542,0.2928 -5.24391,0.56423 -7.87242,0.81292 l 0,-14.46133 -19.55274,-27.38236 -5.77597,-44.15408 z m 89.89123,24.60135 37.18014,13.69119 5.77597,0.34227 c 0.0733,4.45599 0.0856,7.48737 0.0856,7.48737 l 4.49242,14.80359 c -20.58572,7.42721 -41.83189,13.43431 -63.66404,17.88413 l -6.71724,-8.47143 11.12409,-22.24817 11.72309,-23.48895 z m -158.43277,13.69119 17.62742,35.21202 0,13.39169 c -18.97162,-1.32291 -37.61013,-3.7589 -55.87717,-7.31622 l 8.89927,-6.07547 19.59552,-33.24392 9.75496,-1.9681 z m 216.19248,1.15518 14.58969,0.81292 12.10814,5.4337 c -8.1682,3.78364 -16.43858,7.34416 -24.85807,10.65346 -1.02473,-5.97769 -1.82882,-12.08571 -1.83976,-16.90008 z"
       id="path2985"
       inkscape:connector-curvature="0" />
  </g>
</svg>
